<svg width="24" height="24" viewBox="0 0 24 24" fill="none" xmlns="http://www.w3.org/2000/svg">
<rect width="24" height="24" rx="12" fill="#4BA4EC"/>
<g clip-path="url(#clip0_1270_9244)">
<path d="M15.75 18.75V17.25C15.75 16.4544 15.4339 15.6913 14.8713 15.1287C14.3087 14.5661 13.5456 14.25 12.75 14.25H6.75C5.95435 14.25 5.19129 14.5661 4.62868 15.1287C4.06607 15.6913 3.75 16.4544 3.75 17.25V18.75" stroke="white" stroke-width="2" stroke-linecap="round" stroke-linejoin="round"/>
<path d="M9.75 11.25C11.4069 11.25 12.75 9.90685 12.75 8.25C12.75 6.59315 11.4069 5.25 9.75 5.25C8.09315 5.25 6.75 6.59315 6.75 8.25C6.75 9.90685 8.09315 11.25 9.75 11.25Z" stroke="white" stroke-width="2" stroke-linecap="round" stroke-linejoin="round"/>
<path d="M20.25 18.7502V17.2502C20.2495 16.5855 20.0283 15.9397 19.621 15.4144C19.2138 14.889 18.6436 14.5138 18 14.3477" stroke="white" stroke-width="2" stroke-linecap="round" stroke-linejoin="round"/>
<path d="M15 5.34766C15.6453 5.51288 16.2173 5.88818 16.6257 6.41439C17.0342 6.9406 17.2559 7.58778 17.2559 8.25391C17.2559 8.92003 17.0342 9.56722 16.6257 10.0934C16.2173 10.6196 15.6453 10.9949 15 11.1602" stroke="white" stroke-width="2" stroke-linecap="round" stroke-linejoin="round"/>
</g>
<defs>
<clipPath id="clip0_1270_9244">
<rect width="18" height="18" fill="white" transform="translate(3 3)"/>
</clipPath>
</defs>
</svg>
