<svg width="218" height="171" viewBox="0 0 218 171" fill="none" xmlns="http://www.w3.org/2000/svg">
<path d="M167.409 170.587H68.6917C68.0798 170.586 67.493 170.343 67.0603 169.911C66.6275 169.479 66.3841 168.894 66.3834 168.283V101.006C66.3841 100.396 66.6275 99.81 67.0603 99.3781C67.493 98.9462 68.0798 98.7032 68.6917 98.7025H167.409C168.021 98.7032 168.608 98.9462 169.041 99.3781C169.474 99.81 169.717 100.396 169.718 101.006V168.283C169.717 168.894 169.474 169.479 169.041 169.911C168.608 170.343 168.021 170.586 167.409 170.587Z" fill="white"/>
<path d="M167.409 170.587H68.6917C68.0798 170.586 67.493 170.343 67.0603 169.911C66.6275 169.479 66.3841 168.894 66.3834 168.283V101.006C66.3841 100.396 66.6275 99.81 67.0603 99.3781C67.493 98.9462 68.0798 98.7032 68.6917 98.7025H167.409C168.021 98.7032 168.608 98.9462 169.041 99.3781C169.474 99.81 169.717 100.396 169.718 101.006V168.283C169.717 168.894 169.474 169.479 169.041 169.911C168.608 170.343 168.021 170.586 167.409 170.587ZM68.6917 99.2145C68.2158 99.215 67.7594 99.404 67.4228 99.7399C67.0862 100.076 66.8969 100.531 66.8964 101.006V168.283C66.8969 168.758 67.0862 169.213 67.4228 169.549C67.7594 169.885 68.2158 170.074 68.6917 170.075H167.409C167.885 170.074 168.342 169.885 168.678 169.549C169.015 169.213 169.204 168.758 169.205 168.283V101.006C169.204 100.531 169.015 100.076 168.678 99.7399C168.342 99.404 167.885 99.215 167.409 99.2145H68.6917Z" fill="#3F3D56" fill-opacity="0.8"/>
<path d="M129.478 170.182H106.623V132.42C106.624 131.525 106.981 130.666 107.616 130.033C108.25 129.399 109.111 129.043 110.008 129.042H126.093C126.991 129.043 127.851 129.399 128.486 130.033C129.12 130.666 129.477 131.525 129.478 132.42V170.182Z" fill="#E6E6E6" fill-opacity="0.8"/>
<path d="M162.026 84.362H148.974V62.5926C148.975 61.9818 149.218 61.3963 149.651 60.9644C150.083 60.5325 150.67 60.2895 151.282 60.2888H159.717C160.329 60.2895 160.916 60.5325 161.349 60.9644C161.782 61.3963 162.025 61.9818 162.026 62.5926V84.362Z" fill="white"/>
<path d="M162.026 84.362H148.974V62.5926C148.975 61.9818 149.218 61.3963 149.651 60.9644C150.083 60.5325 150.67 60.2895 151.282 60.2888H159.717C160.329 60.2895 160.916 60.5325 161.349 60.9644C161.782 61.3963 162.025 61.9818 162.026 62.5926V84.362ZM149.487 83.8501H161.513V62.5926C161.512 62.1176 161.323 61.6621 160.986 61.3262C160.65 60.9903 160.193 60.8013 159.717 60.8008H151.282C150.806 60.8013 150.35 60.9903 150.013 61.3262C149.677 61.6621 149.487 62.1176 149.487 62.5926V83.8501Z" fill="#3F3D56" fill-opacity="0.8"/>
<path d="M88.4396 93.529C102.32 93.529 113.572 82.2986 113.572 68.4453C113.572 54.5919 102.32 43.3616 88.4396 43.3616C74.559 43.3616 63.3066 54.5919 63.3066 68.4453C63.3066 82.2986 74.559 93.529 88.4396 93.529Z" fill="#F2F2F2" fill-opacity="0.8"/>
<path d="M155.891 56.4724C153.627 56.4013 151.613 54.341 151.596 52.0809C151.58 49.8207 153.565 47.7319 155.828 47.6286C160.865 47.3987 164.989 42.0036 163.88 37.0941C162.772 32.1847 156.728 29.0764 152.079 31.0249C148.512 32.5197 144.909 27.8101 145.812 24.0565C146.716 20.3028 150.137 17.7822 153.302 15.5626C156.466 13.343 159.852 10.737 160.616 6.95246C161.38 3.16797 157.469 -1.36542 154.024 0.388851" fill="#E6E6E6" fill-opacity="0.8"/>
<path d="M96.9703 140.011H77.6649C76.8948 140.01 76.1565 139.705 75.612 139.161C75.0675 138.618 74.7612 137.881 74.7604 137.112V121.228C74.7613 120.459 75.0675 119.722 75.6121 119.179C76.1566 118.636 76.8948 118.33 77.6649 118.329H96.9703C97.7403 118.33 98.4786 118.636 99.0231 119.179C99.5676 119.723 99.8739 120.459 99.8747 121.228V137.112C99.8739 137.881 99.5676 138.618 99.0231 139.161C98.4786 139.705 97.7404 140.01 96.9703 140.011Z" fill="#E6E6E6" fill-opacity="0.8"/>
<path d="M158.883 140.011H139.578C138.808 140.01 138.069 139.705 137.525 139.161C136.98 138.618 136.674 137.881 136.673 137.112V121.228C136.674 120.459 136.98 119.722 137.525 119.179C138.069 118.636 138.808 118.33 139.578 118.329H158.883C159.653 118.33 160.391 118.636 160.936 119.179C161.48 119.722 161.787 120.459 161.788 121.228V137.112C161.787 137.881 161.481 138.618 160.936 139.161C160.391 139.705 159.653 140.01 158.883 140.011Z" fill="#E6E6E6" fill-opacity="0.8"/>
<path d="M59.0131 100.086V89.7353C59.0131 88.9401 59.2237 88.1591 59.6235 87.4714C60.0234 86.7836 60.5983 86.2136 61.29 85.819L118.915 52.9479C119.63 52.5399 120.444 52.3348 121.267 52.3547C122.091 52.3747 122.893 52.6189 123.588 53.0611L174.999 85.7879C175.639 86.1955 176.166 86.7577 176.532 87.4224C176.897 88.0871 177.088 88.8329 177.088 89.591V100.086C177.088 101.283 176.612 102.43 175.764 103.276C174.917 104.122 173.767 104.597 172.569 104.597H63.5327C62.334 104.597 61.1844 104.122 60.3368 103.276C59.4892 102.43 59.0131 101.283 59.0131 100.086Z" fill="#E6E6E6" fill-opacity="0.8"/>
<path opacity="0.2" d="M172.569 99.9886H63.5327C62.334 99.9885 61.1844 99.5133 60.3368 98.6674C59.4892 97.8214 59.0131 96.6741 59.0131 95.4778V99.5734C59.0131 100.77 59.4892 101.917 60.3368 102.763C61.1844 103.609 62.334 104.084 63.5327 104.084H172.569C173.767 104.084 174.917 103.609 175.764 102.763C176.612 101.917 177.088 100.77 177.088 99.5734V95.4778C177.088 96.6741 176.612 97.8214 175.764 98.6674C174.917 99.5133 173.767 99.9885 172.569 99.9886Z" fill="black" fill-opacity="0.8"/>
<path d="M181.422 135.41C181.422 127.472 187.869 108.636 195.822 108.636C203.776 108.636 210.223 127.472 210.223 135.41C210.223 139.222 208.706 142.877 206.005 145.573C203.305 148.268 199.642 149.782 195.822 149.782C192.003 149.782 188.34 148.268 185.64 145.573C182.939 142.877 181.422 139.222 181.422 135.41Z" fill="#F2F2F2" fill-opacity="0.8"/>
<path d="M195.822 170.281C195.754 170.281 195.689 170.254 195.641 170.206C195.593 170.158 195.566 170.093 195.566 170.025V118.417C195.566 118.35 195.593 118.284 195.641 118.236C195.689 118.188 195.754 118.161 195.822 118.161C195.89 118.161 195.956 118.188 196.004 118.236C196.052 118.284 196.079 118.35 196.079 118.417V170.025C196.079 170.093 196.052 170.158 196.004 170.206C195.956 170.254 195.89 170.281 195.822 170.281Z" fill="#3F3D56" fill-opacity="0.8"/>
<path d="M195.822 141.303C195.772 141.303 195.723 141.289 195.681 141.261C195.639 141.233 195.606 141.194 195.586 141.148C195.567 141.102 195.561 141.051 195.57 141.002C195.579 140.953 195.602 140.907 195.637 140.871L202.957 133.204C202.98 133.179 203.008 133.16 203.039 133.146C203.07 133.133 203.103 133.125 203.137 133.124C203.17 133.124 203.204 133.129 203.235 133.142C203.267 133.154 203.295 133.172 203.32 133.195C203.344 133.218 203.364 133.246 203.377 133.277C203.391 133.308 203.398 133.341 203.399 133.374C203.4 133.408 203.394 133.441 203.382 133.473C203.37 133.504 203.352 133.533 203.329 133.557L196.008 141.224C195.984 141.249 195.955 141.269 195.923 141.283C195.891 141.296 195.857 141.303 195.822 141.303Z" fill="#3F3D56" fill-opacity="0.8"/>
<path d="M195.822 128.377C195.758 128.377 195.696 128.353 195.649 128.31L189.323 122.537C189.298 122.514 189.278 122.487 189.263 122.457C189.249 122.426 189.241 122.393 189.239 122.36C189.238 122.326 189.243 122.292 189.254 122.261C189.266 122.229 189.283 122.2 189.306 122.175C189.329 122.15 189.356 122.13 189.387 122.116C189.418 122.102 189.451 122.093 189.484 122.092C189.518 122.091 189.552 122.096 189.583 122.107C189.615 122.119 189.644 122.137 189.669 122.159L195.995 127.932C196.034 127.967 196.06 128.012 196.072 128.063C196.084 128.113 196.08 128.166 196.061 128.214C196.043 128.262 196.01 128.303 195.967 128.332C195.924 128.361 195.874 128.377 195.822 128.377Z" fill="#3F3D56" fill-opacity="0.8"/>
<path d="M5.64978 119.616C5.64978 107.94 15.1342 80.2313 26.8339 80.2313C38.5336 80.2313 48.018 107.94 48.018 119.616C48.018 125.224 45.7861 130.601 41.8133 134.566C37.8405 138.532 32.4523 140.759 26.8339 140.759C21.2155 140.759 15.8273 138.532 11.8545 134.566C7.88167 130.601 5.64978 125.224 5.64978 119.616Z" fill="#E6E6E6" fill-opacity="0.8"/>
<path d="M26.8339 170.794C26.7659 170.794 26.7006 170.767 26.6525 170.719C26.6044 170.671 26.5774 170.605 26.5774 170.538V94.62C26.5774 94.5521 26.6044 94.487 26.6525 94.439C26.7006 94.391 26.7659 94.364 26.8339 94.364C26.9019 94.364 26.9671 94.391 27.0152 94.439C27.0633 94.487 27.0904 94.5521 27.0904 94.62V170.538C27.0904 170.605 27.0633 170.671 27.0152 170.719C26.9671 170.767 26.9019 170.794 26.8339 170.794Z" fill="#3F3D56" fill-opacity="0.8"/>
<path d="M26.8339 128.165C26.7837 128.165 26.7346 128.151 26.6927 128.123C26.6507 128.096 26.6179 128.056 26.5981 128.01C26.5783 127.964 26.5726 127.913 26.5815 127.864C26.5904 127.815 26.6136 127.769 26.6482 127.733L37.417 116.454C37.4639 116.405 37.5285 116.377 37.5965 116.375C37.6645 116.373 37.7304 116.399 37.7796 116.446C37.8289 116.493 37.8575 116.557 37.8591 116.625C37.8607 116.693 37.8353 116.758 37.7884 116.808L27.0196 128.086C26.9956 128.111 26.9668 128.131 26.9349 128.145C26.903 128.158 26.8686 128.165 26.8339 128.165Z" fill="#3F3D56" fill-opacity="0.8"/>
<path d="M26.8338 109.15C26.7698 109.15 26.708 109.126 26.6608 109.083L17.3544 100.591C17.3042 100.545 17.2743 100.481 17.2713 100.414C17.2682 100.346 17.2923 100.28 17.3382 100.229C17.3841 100.179 17.4481 100.15 17.516 100.146C17.584 100.143 17.6504 100.167 17.7006 100.213L27.0069 108.705C27.0451 108.74 27.0718 108.786 27.0836 108.836C27.0954 108.886 27.0917 108.939 27.0729 108.987C27.0542 109.035 27.0214 109.076 26.9787 109.106C26.936 109.135 26.8855 109.15 26.8338 109.15Z" fill="#3F3D56" fill-opacity="0.8"/>
<path d="M185.763 170.256C185.787 170.275 185.812 170.292 185.837 170.31H206.691C207.1 168.658 207.244 167.004 206.634 165.567C205.764 163.52 203.191 162.242 201.144 163.121C200.66 163.335 200.237 163.669 199.917 164.09C199.117 162.662 197.683 161.585 196.027 161.586C193.953 161.587 192.228 163.28 191.666 165.236C190.759 163.709 188.969 162.642 187.219 163.101C184.293 163.869 183.368 168.409 185.763 170.256Z" fill="#E6E6E6" fill-opacity="0.8"/>
<path d="M6.60197 170.713C6.65094 170.751 6.70266 170.785 6.75226 170.822H48.8516C49.6766 167.486 49.9678 164.147 48.7357 161.247C46.98 157.115 41.7843 154.535 37.6535 156.31C36.6748 156.742 35.8223 157.415 35.1761 158.266C33.5619 155.382 30.6662 153.208 27.3238 153.21C23.1363 153.213 19.6547 156.631 18.5184 160.579C16.6889 157.497 13.075 155.343 9.54261 156.269C3.63466 157.819 1.76854 166.985 6.60197 170.713Z" fill="#E6E6E6" fill-opacity="0.8"/>
</svg>
