<svg width="121" height="121" viewBox="0 0 121 121" fill="none" xmlns="http://www.w3.org/2000/svg">
<g clip-path="url(#clip0_1138_2742)">
<path d="M120.5 60.25C120.5 93.5252 93.5252 120.5 60.25 120.5C26.9748 120.5 0 93.5252 0 60.25C0 26.9748 26.9748 0 60.25 0C93.5252 0 120.5 26.9748 120.5 60.25Z" fill="#70C3F8"/>
<path d="M61.3281 78.661C72.1299 78.661 80.8865 69.9044 80.8865 59.1026C80.8865 48.3008 72.1299 39.5443 61.3281 39.5443C50.5263 39.5443 41.7698 48.3008 41.7698 59.1026C41.7698 69.9044 50.5263 78.661 61.3281 78.661Z" fill="#FFB6B6"/>
<path d="M50.1003 81.5532L49.2167 72.6213L66.8616 69.322L77.2808 94.6904L59.1605 115.529L46.2498 90.1603L50.1003 81.5532Z" fill="#FFB6B6"/>
<path d="M48.9333 77.0922L52.7909 77.9638C52.7909 77.9638 49.7584 68.3477 50.7877 67.4296C51.817 66.5116 54.3393 67.9581 54.3393 67.9581L56.9899 70.9298L60.2184 67.6427C60.2184 67.6427 63.7236 63.2843 65.0959 62.0602C66.4683 60.8362 64.264 56.2926 64.264 56.2926C64.264 56.2926 84.6248 50.8023 77.0485 40.9267C77.0485 40.9267 72.6066 33.1838 71.16 35.7061C69.7135 38.2284 67.9886 34.2224 67.9886 34.2224L62.7215 35.224C62.7215 35.224 52.3263 29.0947 42.46 42.207C32.5937 55.3194 48.9333 77.0922 48.9333 77.0922Z" fill="#2F2E41"/>
<path d="M98.1124 107.125C87.4237 115.791 74.2004 120.5 60.25 120.5C47.5114 120.5 35.3776 116.572 25.228 109.293C25.2461 109.102 25.2642 108.914 25.2801 108.726C25.5496 105.782 25.7897 102.919 25.9483 100.545C26.5621 91.3286 48.0641 85.1859 48.0641 85.1859C48.0641 85.1859 48.1615 85.2832 48.3563 85.4531C49.5432 86.495 54.3609 90.2731 62.8095 91.3286C70.343 92.2709 72.8232 87.802 73.573 85.6615C73.7995 85.0092 73.8674 84.572 73.8674 84.572L95.9832 95.0161C97.4261 97.0773 97.9901 101.517 98.1011 106.507C98.1056 106.713 98.1101 106.917 98.1124 107.125Z" fill="white"/>
<path d="M102.853 17.6469C91.4735 6.26735 76.3431 0 60.25 0C44.1569 0 29.0265 6.26735 17.6469 17.6469C6.26737 29.0265 0 44.1569 0 60.25C0 74.9388 5.22092 88.8257 14.7884 99.7908C15.7012 100.839 16.6548 101.861 17.6469 102.853C17.8802 103.086 18.1158 103.32 18.3536 103.546C18.9878 104.16 19.6334 104.76 20.2902 105.342C20.6889 105.698 21.092 106.047 21.4998 106.389C21.8191 106.658 22.1385 106.923 22.4624 107.184C22.4692 107.191 22.4737 107.195 22.4805 107.2C23.3797 107.925 24.2948 108.622 25.228 109.293C35.3776 116.572 47.5114 120.5 60.25 120.5C74.2004 120.5 87.4237 115.791 98.1124 107.125C98.9844 106.418 99.8383 105.684 100.676 104.926C101.417 104.255 102.142 103.564 102.853 102.853C103.077 102.629 103.302 102.402 103.521 102.174C104.133 101.544 104.726 100.903 105.306 100.253C115.13 89.2176 120.5 75.1472 120.5 60.25C120.5 44.1569 114.233 29.0265 102.853 17.6469ZM105.159 99.6888C104.593 100.332 104.013 100.966 103.419 101.585C102.495 102.547 101.542 103.481 100.556 104.38C100.183 104.724 99.8044 105.059 99.4216 105.392C98.9867 105.77 98.5473 106.142 98.1011 106.507C94.5834 109.395 90.7306 111.886 86.6105 113.916C84.9819 114.72 83.3126 115.451 81.6048 116.106C74.9705 118.652 67.7699 120.047 60.25 120.047C52.9928 120.047 46.0346 118.747 39.5951 116.369C36.9518 115.395 34.3969 114.237 31.9438 112.912C31.5837 112.717 31.2258 112.52 30.8702 112.319C28.9993 111.259 27.1895 110.101 25.4522 108.851C25.3956 108.81 25.3367 108.767 25.2801 108.726C24.0434 107.834 22.8406 106.894 21.6787 105.906C21.2529 105.546 20.8316 105.182 20.4171 104.808C19.7421 104.208 19.0807 103.589 18.4351 102.955C17.212 101.757 16.0433 100.509 14.9266 99.2109C5.90949 88.7374 0.453008 75.12 0.453008 60.25C0.453008 27.2778 27.2779 0.453008 60.25 0.453008C93.2221 0.453008 120.047 27.2778 120.047 60.25C120.047 75.3487 114.423 89.1564 105.159 99.6888Z" fill="#3F3D56"/>
</g>
<defs>
<clipPath id="clip0_1138_2742">
<rect width="120.5" height="120.5" fill="white"/>
</clipPath>
</defs>
</svg>
