<svg width="564" height="646" viewBox="0 0 564 646" fill="none" xmlns="http://www.w3.org/2000/svg">
<g clip-path="url(#clip0_24_32)" filter="url(#filter0_d_24_32)">
<path d="M462.117 606.383L416.01 638C416.01 638 244.869 516.462 215.905 453.149C186.941 389.836 241.462 233.22 241.462 233.22L362.43 298.199L462.117 606.383Z" fill="#FFB6B6"/>
<path d="M115.382 189.901L79.6029 193.233C79.6029 193.233 60.8612 233.22 118.79 236.552L115.382 189.901Z" fill="#FFB6B6"/>
<path d="M115.382 251.548L79.6029 254.88C79.6029 254.88 60.8612 294.867 118.79 298.199L115.382 251.548Z" fill="#FFB6B6"/>
<path d="M115.382 318.193L79.6029 321.525C79.6029 321.525 60.8612 361.512 118.79 364.844L115.382 318.193Z" fill="#FFB6B6"/>
<path d="M125.605 384.838L89.8255 388.17C89.8255 388.17 71.0839 428.157 129.012 431.489L125.605 384.838Z" fill="#FFB6B6"/>
<path d="M97.9634 205.965H100.678V133.236C100.678 127.709 101.792 122.235 103.955 117.128C106.118 112.021 109.289 107.38 113.286 103.472C117.283 99.563 122.028 96.4624 127.25 94.347C132.473 92.2316 138.07 91.1428 143.723 91.1428H301.291C306.943 91.1428 312.541 92.2316 317.763 94.347C322.986 96.4623 327.731 99.5629 331.728 103.472C335.725 107.38 338.896 112.021 341.059 117.128C343.222 122.235 344.335 127.708 344.335 133.236V532.232C344.335 537.76 343.222 543.234 341.059 548.341C338.896 553.448 335.725 558.088 331.728 561.997C327.731 565.906 322.986 569.006 317.763 571.122C312.541 573.237 306.944 574.326 301.291 574.326H143.723C132.307 574.326 121.358 569.891 113.286 561.997C105.213 554.103 100.678 543.396 100.678 532.232V257.735H97.9634V205.965Z" fill="#3F3D56"/>
<path d="M141.986 102.094H162.554C161.608 104.362 161.247 106.822 161.502 109.258C161.758 111.695 162.622 114.032 164.019 116.065C165.416 118.098 167.303 119.763 169.513 120.915C171.723 122.067 174.189 122.669 176.693 122.669H266.962C269.466 122.669 271.932 122.067 274.143 120.915C276.353 119.763 278.24 118.098 279.637 116.065C281.033 114.032 281.898 111.695 282.153 109.258C282.409 106.822 282.048 104.362 281.102 102.094H300.312C308.838 102.094 317.014 105.406 323.042 111.301C329.071 117.196 332.458 125.192 332.458 133.529V531.94C332.458 536.068 331.626 540.155 330.011 543.969C328.395 547.783 326.028 551.248 323.043 554.167C320.058 557.086 316.514 559.402 312.614 560.982C308.714 562.561 304.534 563.375 300.312 563.375H141.986C137.764 563.375 133.584 562.561 129.684 560.982C125.784 559.402 122.241 557.086 119.256 554.167C116.271 551.248 113.903 547.783 112.287 543.969C110.672 540.155 109.84 536.068 109.84 531.94V133.529C109.84 129.401 110.672 125.313 112.287 121.499C113.903 117.686 116.271 114.22 119.256 111.301C122.241 108.382 125.784 106.067 129.684 104.487C133.584 102.907 137.764 102.094 141.986 102.094Z" fill="white"/>
<path opacity="0.2" d="M79.7936 192.727L79.4136 193.736L100.488 201.327L100.868 200.319L79.7936 192.727Z" fill="black"/>
<path opacity="0.2" d="M79.7936 255.076L79.4136 256.085L100.488 263.677L100.868 262.668L79.7936 255.076Z" fill="black"/>
<path opacity="0.2" d="M79.7936 321.725L79.4136 322.734L100.488 330.326L100.868 329.317L79.7936 321.725Z" fill="black"/>
<path opacity="0.2" d="M90.8341 388.394L90.3585 389.363L100.619 394.179L101.094 393.21L90.8341 388.394Z" fill="black"/>
<path d="M283.516 340.994H143.982C141.538 340.991 139.194 340.04 137.466 338.35C135.738 336.66 134.766 334.369 134.763 331.979V327.492C134.766 325.102 135.738 322.811 137.466 321.121C139.194 319.431 141.538 318.48 143.982 318.477H283.516C285.96 318.48 288.303 319.431 290.031 321.121C291.76 322.811 292.732 325.102 292.734 327.492V331.979C292.732 334.369 291.76 336.66 290.031 338.35C288.303 340.04 285.96 340.991 283.516 340.994Z" fill="#F0F0F0"/>
<path d="M283.516 379.673H143.982C141.538 379.67 139.194 378.72 137.466 377.03C135.738 375.34 134.766 373.048 134.763 370.658V366.171C134.766 363.781 135.738 361.49 137.466 359.8C139.194 358.11 141.538 357.159 143.982 357.157H283.516C285.96 357.159 288.303 358.11 290.031 359.8C291.76 361.49 292.732 363.781 292.734 366.171V370.658C292.732 373.048 291.76 375.34 290.031 377.03C288.303 378.72 285.96 379.67 283.516 379.673Z" fill="#F0F0F0"/>
<path d="M290.496 332.343H150.961C148.395 332.34 145.935 331.342 144.12 329.568C142.306 327.793 141.285 325.387 141.282 322.878V318.391C141.285 315.881 142.306 313.475 144.12 311.701C145.935 309.926 148.395 308.928 150.961 308.925H290.496C293.062 308.928 295.522 309.926 297.337 311.701C299.151 313.475 300.172 315.881 300.175 318.391V322.878C300.172 325.387 299.151 327.793 297.337 329.568C295.522 331.342 293.062 332.34 290.496 332.343ZM150.961 310.728C148.884 310.731 146.892 311.539 145.423 312.975C143.954 314.412 143.128 316.359 143.126 318.391V322.878C143.128 324.909 143.954 326.857 145.423 328.293C146.892 329.73 148.884 330.538 150.961 330.54H290.496C292.573 330.538 294.565 329.73 296.034 328.293C297.503 326.857 298.329 324.909 298.331 322.878V318.391C298.329 316.359 297.503 314.412 296.034 312.975C294.565 311.539 292.573 310.731 290.496 310.728H150.961Z" fill="#3F3D56"/>
<path d="M290.496 371.022H150.961C148.395 371.019 145.935 370.021 144.12 368.247C142.306 366.472 141.285 364.066 141.282 361.557V357.07C141.285 354.56 142.306 352.155 144.12 350.38C145.935 348.606 148.395 347.607 150.961 347.605H290.496C293.062 347.607 295.522 348.606 297.337 350.38C299.151 352.155 300.172 354.56 300.175 357.07V361.557C300.172 364.066 299.151 366.472 297.337 368.247C295.522 370.021 293.062 371.019 290.496 371.022ZM150.961 349.407C148.884 349.41 146.892 350.218 145.423 351.654C143.954 353.091 143.128 355.038 143.126 357.07V361.557C143.128 363.588 143.954 365.536 145.423 366.973C146.892 368.409 148.884 369.217 150.961 369.219H290.496C292.573 369.217 294.565 368.409 296.034 366.973C297.503 365.536 298.329 363.588 298.331 361.557V357.07C298.329 355.038 297.503 353.091 296.034 351.654C294.565 350.218 292.573 349.41 290.496 349.407H150.961Z" fill="#3F3D56"/>
<path d="M332.896 133.405V220.296C318.778 223.929 303.995 224.345 289.686 221.514C275.377 218.683 261.922 212.68 250.358 203.967C238.793 195.253 229.427 184.061 222.979 171.253C216.532 158.444 213.175 144.359 213.167 130.083C213.167 127.535 213.271 125.013 213.481 122.518H265.865C268.377 122.52 270.85 121.918 273.068 120.764C275.285 119.611 277.178 117.941 278.579 115.903C279.981 113.865 280.848 111.52 281.104 109.077C281.36 106.634 280.997 104.166 280.047 101.893H300.661C304.893 101.891 309.085 102.705 312.996 104.288C316.907 105.871 320.461 108.192 323.454 111.118C326.448 114.045 328.822 117.519 330.442 121.343C332.063 125.167 332.896 129.266 332.896 133.405Z" fill="#F0F0F0"/>
<path d="M189.9 558.966C189.9 560.798 189.83 562.606 189.679 564.393H141.913C137.681 564.393 133.491 563.578 129.581 561.994C125.671 560.411 122.119 558.09 119.126 555.164C116.134 552.237 113.76 548.763 112.141 544.94C110.522 541.117 109.688 537.019 109.689 532.88V490.151C119.701 488.878 129.876 489.706 139.536 492.581C149.195 495.455 158.117 500.31 165.707 506.821C173.297 513.333 179.381 521.352 183.552 530.343C187.724 539.335 189.888 549.092 189.9 558.966Z" fill="#70C3F8"/>
<path d="M243.962 426.315H177.718C175.274 426.312 172.931 425.362 171.202 423.672C169.474 421.982 168.502 419.691 168.5 417.301V412.814C168.502 410.424 169.474 408.132 171.202 406.442C172.931 404.752 175.274 403.802 177.718 403.799H243.962C246.406 403.802 248.75 404.752 250.478 406.442C252.206 408.132 253.178 410.424 253.181 412.814V417.301C253.178 419.691 252.206 421.982 250.478 423.672C248.75 425.362 246.406 426.312 243.962 426.315Z" fill="#70C3F8"/>
<path d="M250.942 417.665H184.698C182.131 417.662 179.671 416.664 177.856 414.889C176.042 413.115 175.021 410.709 175.018 408.2V403.713C175.021 401.203 176.042 398.797 177.856 397.023C179.671 395.248 182.131 394.25 184.698 394.247H250.942C253.509 394.25 255.969 395.248 257.783 397.023C259.598 398.797 260.619 401.203 260.622 403.713V408.2C260.619 410.709 259.598 413.115 257.783 414.889C255.969 416.664 253.509 417.662 250.942 417.665ZM184.698 396.05C182.62 396.052 180.628 396.86 179.16 398.297C177.691 399.733 176.864 401.681 176.862 403.713V408.2C176.864 410.231 177.691 412.179 179.16 413.615C180.628 415.052 182.62 415.86 184.698 415.862H250.942C253.02 415.86 255.011 415.052 256.48 413.615C257.949 412.179 258.776 410.231 258.778 408.2V403.713C258.776 401.681 257.949 399.733 256.48 398.297C255.011 396.86 253.02 396.052 250.942 396.05H184.698Z" fill="#3F3D56"/>
<path d="M515.318 572.424L441.655 470.643L434.84 334.021L363.282 217.392L342.836 167.408C342.836 167.408 295.13 172.406 334.317 267.376L350.503 318.193C335.913 348.924 328.354 382.397 328.354 416.279V532.725C328.354 560.145 401.639 615.186 417.193 638L477.525 598.186L515.318 572.424Z" fill="#FFB6B6"/>
<path opacity="0.2" d="M348.446 227.275L362.672 220.438L362.187 219.473L349.043 225.79L329.201 174.919L328.174 175.302L348.446 227.275Z" fill="black"/>
<path d="M560 450.471L514.746 415.985L480.135 461.075L525.389 495.561L560 450.471Z" fill="#F0F0F0"/>
<path d="M94.5931 83.6315C99.5596 80.1493 105.272 77.869 111.272 76.9733C117.273 76.0776 123.395 76.5913 129.148 78.4732L130.721 41.8019L46.1445 38.57L42.5349 122.724L78.987 124.117C77.2416 116.607 77.7948 108.74 80.5756 101.526C83.3564 94.3121 88.2379 88.0804 94.5931 83.6315Z" fill="#ECECEC"/>
</g>
<defs>
<filter id="filter0_d_24_32" x="0" y="0" width="564" height="646" filterUnits="userSpaceOnUse" color-interpolation-filters="sRGB">
<feFlood flood-opacity="0" result="BackgroundImageFix"/>
<feColorMatrix in="SourceAlpha" type="matrix" values="0 0 0 0 0 0 0 0 0 0 0 0 0 0 0 0 0 0 127 0" result="hardAlpha"/>
<feOffset dy="4"/>
<feGaussianBlur stdDeviation="2"/>
<feComposite in2="hardAlpha" operator="out"/>
<feColorMatrix type="matrix" values="0 0 0 0 0 0 0 0 0 0 0 0 0 0 0 0 0 0 0.25 0"/>
<feBlend mode="normal" in2="BackgroundImageFix" result="effect1_dropShadow_24_32"/>
<feBlend mode="normal" in="SourceGraphic" in2="effect1_dropShadow_24_32" result="shape"/>
</filter>
<clipPath id="clip0_24_32">
<rect width="556" height="638" fill="white" transform="translate(4)"/>
</clipPath>
</defs>
</svg>
