<svg width="361" height="380" viewBox="0 0 361 380" fill="none" xmlns="http://www.w3.org/2000/svg">
<g clip-path="url(#clip0_1062_1194)" filter="url(#filter0_d_1062_1194)">
<path d="M187.628 295.25L176.107 294.617L177.694 329.952L185.501 330.382L187.628 295.25Z" fill="#A0616A"/>
<path d="M176.672 318.781L180.675 320.596V323.02C180.675 323.02 181.634 320.213 186.813 319.59L187.437 321.938C187.437 321.938 189.451 324.239 189.115 328.409L187.82 339.577L183.913 339.495L183.266 331.727C183.266 331.727 182.186 329.967 177.247 338.355C177.247 338.355 175.427 341.127 166.965 338.311C165.802 337.924 164.992 336.842 165.005 335.616C165.011 334.94 165.275 334.315 166.122 334.089C168.28 333.514 170.39 334.233 171.78 332.507C173.171 330.782 176.672 318.781 176.672 318.781Z" fill="#2F2E41"/>
<path d="M158.786 327.673L147.264 327.04L148.851 362.375L156.658 362.805L158.786 327.673Z" fill="#A0616A"/>
<path d="M147.829 351.204L151.833 353.019V355.443C151.833 355.443 152.792 352.636 157.971 352.013L158.594 354.361C158.594 354.361 160.608 356.662 160.272 360.832L158.978 372L155.071 371.918L154.423 364.151C154.423 364.151 153.343 362.39 148.404 370.778C148.404 370.778 146.584 373.55 138.122 370.735C136.959 370.348 136.149 369.265 136.162 368.039C136.169 367.363 136.432 366.738 137.28 366.512C139.438 365.937 141.547 366.656 142.938 364.93C144.329 363.205 147.829 351.204 147.829 351.204Z" fill="#2F2E41"/>
<path d="M303.365 222.082C302.854 221.221 300.642 222.143 300.236 221.361C299.831 220.582 301.885 219.395 303.059 216.683C303.271 216.194 304.605 213.112 303.617 212.161C301.746 210.359 293.18 217.797 290.182 215.363C289.524 214.829 289.065 213.763 287.074 212.031C286.282 211.342 285.803 211.031 285.339 211.147C284.681 211.311 284.629 212.191 283.924 213.921C282.866 216.516 282.241 216.359 281.624 218.429C281.167 219.966 281.271 220.859 280.733 221.033C279.971 221.28 279.27 219.65 278.305 219.796C277.319 219.945 276.724 221.843 276.536 223.263C276.183 225.93 277.162 227.689 277.705 229.54C278.295 231.55 278.646 234.608 277.283 238.937L263.795 276.922C266.773 269.128 275.395 247.761 279.017 239.821C280.063 237.529 281.218 235.204 283.589 234.286C285.872 233.403 289.007 233.93 293.004 232.968C293.471 232.855 294.766 232.526 294.929 231.764C295.064 231.135 294.302 230.783 294.419 230.194C294.576 229.403 296.075 229.393 297.916 228.48C299.214 227.837 300.023 227.072 300.719 226.413C300.928 226.215 304.046 223.229 303.365 222.082Z" fill="#F2F2F2"/>
<path d="M250.301 242.079C249.73 242.081 249.545 243.433 249.044 243.406C248.544 243.38 248.554 242.03 247.561 240.672C247.382 240.427 246.254 238.883 245.502 239.093C244.077 239.491 245.258 245.84 243.198 246.608C242.746 246.777 242.089 246.695 240.665 247.172C240.098 247.362 239.807 247.507 239.73 247.768C239.621 248.138 240.038 248.417 240.684 249.262C241.653 250.53 241.395 250.792 242.234 251.691C242.857 252.359 243.325 252.566 243.256 252.88C243.157 253.325 242.154 253.198 241.947 253.714C241.736 254.241 242.496 255.08 243.139 255.583C244.347 256.525 245.494 256.552 246.559 256.82C247.716 257.11 249.319 257.821 251.051 259.738L265.811 277.315C262.843 273.605 254.839 263.211 251.986 259.142C251.162 257.968 250.353 256.731 250.587 255.303C250.812 253.928 251.976 252.542 252.656 250.303C252.736 250.042 252.948 249.311 252.621 249.012C252.35 248.764 251.958 249.036 251.702 248.809C251.359 248.503 251.787 247.765 251.87 246.599C251.929 245.776 251.786 245.158 251.664 244.627C251.627 244.467 251.06 242.076 250.301 242.079Z" fill="#F2F2F2"/>
<path d="M261.683 244.633L261.339 241.566L261.496 241.334C262.223 240.258 262.593 239.208 262.598 238.212C262.599 238.053 262.591 237.895 262.584 237.733C262.554 237.093 262.517 236.298 262.932 235.371C263.165 234.854 263.818 233.657 264.8 233.805C265.065 233.843 265.265 233.964 265.417 234.106C265.439 234.071 265.462 234.035 265.486 233.997C265.792 233.53 266.034 233.33 266.268 233.138C266.447 232.989 266.632 232.837 266.923 232.476C267.05 232.317 267.149 232.178 267.233 232.061C267.487 231.707 267.819 231.285 268.404 231.292C269.03 231.322 269.357 231.839 269.574 232.181C269.962 232.791 270.137 233.231 270.253 233.523C270.296 233.629 270.344 233.749 270.368 233.786C270.57 234.082 272.208 233.805 272.825 233.705C274.211 233.474 275.41 233.274 275.905 234.148C276.259 234.773 275.996 235.599 275.099 236.67C274.82 237.003 274.523 237.256 274.259 237.455C274.478 237.585 274.673 237.785 274.753 238.099C274.939 238.842 274.3 239.587 272.853 240.316C272.494 240.498 272.01 240.741 271.332 240.858C271.013 240.913 270.725 240.926 270.479 240.934C270.474 241.076 270.441 241.23 270.354 241.388C270.1 241.855 269.571 242.077 268.774 242.024C267.897 241.978 267.175 241.81 266.538 241.664C265.981 241.536 265.502 241.428 265.126 241.454C264.428 241.51 263.89 242.068 263.259 242.792L261.683 244.633Z" fill="#F2F2F2"/>
<path d="M263.277 226.371L260.396 227.481L260.131 227.389C258.907 226.959 257.797 226.867 256.831 227.115C256.677 227.155 256.526 227.202 256.372 227.25C255.76 227.441 255 227.679 253.997 227.513C253.438 227.419 252.114 227.091 252.008 226.103C251.977 225.838 252.044 225.614 252.143 225.431C252.103 225.419 252.063 225.406 252.019 225.392C251.49 225.214 251.235 225.031 250.99 224.854C250.801 224.718 250.606 224.578 250.183 224.389C249.997 224.306 249.838 224.245 249.703 224.194C249.296 224.038 248.803 223.824 248.662 223.256C248.532 222.644 248.949 222.196 249.225 221.9C249.718 221.37 250.099 221.089 250.352 220.903C250.444 220.835 250.548 220.758 250.578 220.725C250.813 220.455 250.13 218.941 249.876 218.37C249.3 217.088 248.803 215.98 249.523 215.28C250.038 214.779 250.904 214.824 252.168 215.419C252.561 215.604 252.882 215.827 253.141 216.032C253.211 215.788 253.355 215.548 253.639 215.392C254.311 215.023 255.194 215.452 256.266 216.666C256.534 216.967 256.891 217.373 257.177 217.999C257.311 218.294 257.396 218.568 257.466 218.804C257.605 218.773 257.762 218.766 257.938 218.81C258.454 218.937 258.803 219.392 258.953 220.177C259.131 221.036 259.153 221.777 259.172 222.43C259.19 223.001 259.207 223.492 259.327 223.849C259.559 224.51 260.235 224.888 261.096 225.315L263.277 226.371Z" fill="#F2F2F2"/>
<path d="M261.683 217.335L261.339 214.268L261.496 214.035C262.223 212.96 262.593 211.91 262.598 210.913C262.599 210.755 262.591 210.596 262.584 210.435C262.554 209.795 262.517 209 262.932 208.073C263.165 207.556 263.818 206.359 264.8 206.507C265.065 206.544 265.265 206.666 265.417 206.808C265.439 206.772 265.462 206.737 265.486 206.698C265.792 206.232 266.034 206.032 266.268 205.839C266.447 205.691 266.632 205.539 266.923 205.177C267.05 205.019 267.149 204.88 267.233 204.763C267.487 204.409 267.819 203.987 268.404 203.994C269.03 204.024 269.357 204.54 269.574 204.883C269.962 205.493 270.137 205.933 270.253 206.224C270.296 206.331 270.344 206.451 270.368 206.488C270.57 206.784 272.208 206.507 272.825 206.407C274.211 206.176 275.41 205.976 275.905 206.849C276.259 207.474 275.996 208.301 275.099 209.372C274.82 209.705 274.523 209.958 274.259 210.157C274.478 210.287 274.673 210.487 274.753 210.801C274.939 211.544 274.3 212.289 272.853 213.018C272.494 213.2 272.01 213.443 271.332 213.56C271.013 213.615 270.725 213.628 270.479 213.635C270.474 213.778 270.441 213.932 270.354 214.09C270.1 214.557 269.571 214.779 268.774 214.725C267.897 214.68 267.175 214.512 266.538 214.366C265.981 214.238 265.502 214.13 265.126 214.155C264.428 214.212 263.89 214.77 263.259 215.494L261.683 217.335Z" fill="#F2F2F2"/>
<path d="M264.822 276.872L264.179 276.469L263.43 276.555C263.418 276.486 263.377 276.326 263.316 276.075C262.98 274.704 261.957 270.53 261.103 263.958C260.508 259.369 260.171 254.652 260.101 249.935C260.032 245.211 260.255 241.634 260.435 238.76C260.57 236.591 260.735 234.527 260.896 232.516C261.326 227.142 261.731 222.067 261.429 216.448C261.363 215.193 261.223 212.582 259.697 209.804C258.811 208.193 257.592 206.762 256.072 205.554L257.017 204.366C258.695 205.702 260.044 207.286 261.027 209.075C262.719 212.156 262.872 215.001 262.945 216.368C263.252 222.086 262.842 227.211 262.408 232.636C262.248 234.639 262.084 236.695 261.949 238.854C261.771 241.702 261.549 245.248 261.618 249.912C261.687 254.572 262.02 259.232 262.607 263.762C263.45 270.252 264.459 274.363 264.79 275.714C264.966 276.435 265.003 276.586 264.822 276.872Z" fill="#F2F2F2"/>
<path d="M253.289 207.963C253.227 207.963 253.164 207.962 253.1 207.957C251.808 207.888 250.612 207.115 249.544 205.66C249.043 204.976 248.786 204.195 248.275 202.639C248.196 202.399 247.811 201.182 247.577 199.507C247.423 198.412 247.443 197.954 247.66 197.55C247.9 197.1 248.29 196.786 248.729 196.574C248.709 196.429 248.725 196.279 248.788 196.127C249.046 195.494 249.734 195.577 250.106 195.617C250.294 195.641 250.529 195.672 250.782 195.659C251.181 195.64 251.395 195.521 251.719 195.343C252.03 195.173 252.416 194.961 252.988 194.844C254.117 194.609 255.063 194.929 255.375 195.034C257.016 195.58 257.825 196.855 258.762 198.332C258.948 198.628 259.589 199.706 260.012 201.184C260.317 202.251 260.274 202.725 260.183 203.077C259.996 203.801 259.555 204.216 258.436 205.131C257.267 206.09 256.68 206.57 256.176 206.861C255.003 207.538 254.267 207.963 253.289 207.963Z" fill="#F2F2F2"/>
<path d="M92.4035 273.286L99.5836 273.285L102.999 245.602L92.4021 245.603L92.4035 273.286Z" fill="#FFB6B6"/>
<path d="M117.003 273.123C117.227 273.499 117.345 274.714 117.345 275.152C117.345 276.497 116.254 277.588 114.908 277.588H92.672C91.7539 277.588 91.0095 276.844 91.0095 275.926V275C91.0095 275 89.9095 272.219 92.1742 268.791C92.1742 268.791 94.9889 271.475 99.1948 267.271L100.435 265.025L109.413 271.589L114.389 272.201C115.478 272.335 116.443 272.18 117.003 273.123Z" fill="#2F2E41"/>
<path d="M65.1584 273.286L72.3385 273.285L75.7541 245.602L65.157 245.603L65.1584 273.286Z" fill="#FFB6B6"/>
<path d="M89.7582 273.123C89.9817 273.499 90.0997 274.714 90.0997 275.152C90.0997 276.497 89.0086 277.588 87.6627 277.588H65.4269C64.5087 277.588 63.7644 276.844 63.7644 275.926V275C63.7644 275 62.6644 272.219 64.9291 268.791C64.9291 268.791 67.7438 271.475 71.9496 267.271L73.1899 265.025L82.1678 271.589L87.1441 272.201C88.2328 272.335 89.1981 272.18 89.7582 273.123Z" fill="#2F2E41"/>
<path d="M59.8705 124.581L50.7888 145.158L62.2923 257.723L76.5203 258.631L82.2721 159.077L87.7211 258.933L104.674 257.118L108.695 130.355L59.8705 124.581Z" fill="#2F2E41"/>
<path d="M95.6516 42.5784L77.4286 39.2498L73.7483 42.9286L55.0271 50.7484L58.0543 109.452C58.0543 109.452 51.9998 113.483 55.0271 119.032C58.0543 124.581 57.4489 131.239 57.4489 131.239H108.695L106.49 97.9532L112.545 55.5899L98.3976 48.895L95.6516 42.5784Z" fill="#CCCCCC"/>
<path d="M82.4435 110.97C87.6206 112.205 92.4548 110.536 93.2408 107.243C94.0268 103.949 90.4672 100.279 85.288 99.044C83.2259 98.5222 81.0688 98.5017 78.9972 98.9841L56.9952 94.0267L54.8879 104.397L76.8017 108.183C78.4326 109.549 80.3672 110.505 82.4435 110.97Z" fill="#FFB6B6"/>
<path d="M58.6598 53.7744L55.0271 50.7484C55.0271 50.7484 47.7617 54.3796 46.5508 57.4055C45.3399 60.4314 38.0746 89.4805 38.0746 89.4805C38.0746 89.4805 36.6491 105.401 40.3891 107.426C44.129 109.452 67.7415 108.241 67.7415 108.241L69.5578 96.1376L59.8707 92.5065L58.6598 53.7744Z" fill="#CCCCCC"/>
<path d="M87.6841 37.5323C96.5228 37.5323 103.688 30.3702 103.688 21.5352C103.688 12.7003 96.5228 5.53813 87.6841 5.53813C78.8454 5.53813 71.6802 12.7003 71.6802 21.5352C71.6802 30.3702 78.8454 37.5323 87.6841 37.5323Z" fill="#FFB6B6"/>
<path d="M76.2057 35.7362C74.2885 35.9074 71.1587 31.0049 71.2982 26.257C71.3879 23.2026 68.735 22.602 68.5379 18.663C68.4231 16.3677 71.9502 15.6521 72.1925 13.8111C72.6315 10.4756 74.7844 8.23105 75.0531 7.95819C77.3733 5.60283 79.0108 6.36853 81.7393 3.63874C83.382 1.99527 82.961 1.54501 84.0673 0.816046C87.2602 -1.2878 92.9973 0.992367 96.4281 4.06384C97.6153 5.12669 102.041 3.96505 103.974 6.96644C106.251 10.5026 105.722 17.7142 104.746 18.666C104.152 19.2442 102.797 17.8315 99.1248 16.9249C95.7246 16.0855 98.9321 20.2366 95.0012 19.54C90.3529 18.7162 89.4429 17.3026 87.702 18.1505C85.8618 19.0467 84.4239 21.8219 84.8414 24.0034C85.0485 25.086 85.649 25.6896 85.3103 26.2401C84.6922 27.2452 83.9829 26.2595 83.1899 27.2681C82.2677 28.4413 84.5595 31.4509 84.1279 31.7415C84.041 31.8001 83.7777 31.7924 81.304 29.4144C80.3163 28.4649 80.0267 27.8818 79.8335 27.9713C79.5206 28.1162 77.4701 30.0256 78.2531 31.5334C79.4715 33.8799 77.9122 33.953 78.2531 35.5327C78.6048 37.1624 77.4242 35.6273 76.2057 35.7362Z" fill="#2F2E41"/>
<path d="M72.8876 84.3364L70.4658 86.152L83.1802 103.702L85.602 103.097L72.8876 84.3364Z" fill="#3F3D56"/>
<path d="M105.582 100.402V131.033C105.582 133.742 103.377 135.946 100.667 135.946H70.0228C67.3128 135.946 65.1082 133.742 65.1082 131.033V100.402C65.1082 97.6933 67.3128 95.4895 70.0228 95.4895H100.667C103.377 95.4895 105.582 97.6933 105.582 100.402Z" fill="white"/>
<path d="M89.4243 108H79.5312C79.2818 108 79.0789 107.797 79.0789 107.548C79.0789 107.298 79.2818 107.096 79.5312 107.096H89.4243C89.6737 107.096 89.8766 107.298 89.8766 107.548C89.8766 107.797 89.6737 108 89.4243 108Z" fill="#3F3D56"/>
<path d="M89.4243 117.641H79.5312C79.2818 117.641 79.0789 117.438 79.0789 117.189C79.0789 116.94 79.2818 116.737 79.5312 116.737H89.4243C89.6737 116.737 89.8766 116.94 89.8766 117.189C89.8766 117.438 89.6737 117.641 89.4243 117.641Z" fill="#3F3D56"/>
<path d="M84.5095 130.934H74.6164C74.367 130.934 74.1641 130.731 74.1641 130.482C74.1641 130.232 74.367 130.03 74.6164 130.03H84.5095C84.7589 130.03 84.9618 130.232 84.9618 130.482C84.9618 130.731 84.7589 130.934 84.5095 130.934Z" fill="#3F3D56"/>
<path d="M94.733 112.824H74.2224C73.973 112.824 73.77 112.621 73.77 112.372C73.77 112.122 73.973 111.919 74.2224 111.919H94.733C94.9824 111.919 95.1852 112.122 95.1852 112.372C95.1852 112.621 94.9824 112.824 94.733 112.824Z" fill="#3F3D56"/>
<path d="M93.2183 113.46C88.4997 115.922 85.9457 120.351 87.5135 123.352C89.0813 126.354 94.1767 126.791 98.8966 124.327C100.796 123.369 102.437 121.97 103.685 120.248L123.546 109.565L118.332 100.356L99.3057 111.865C97.1782 111.903 95.0908 112.45 93.2183 113.46Z" fill="#FFB6B6"/>
<path d="M108.912 56.1951C108.912 56.1951 114.361 52.564 117.994 62.247C120.86 69.8861 126.175 92.4034 128.291 101.569C128.853 104.002 128.04 106.544 126.173 108.203L123.745 110.36L111.939 119.135L103.89 107.426L113.666 101.534L102.517 77.3578L108.912 56.1951Z" fill="#CCCCCC"/>
<path d="M357 277.393C357 277.674 356.772 277.901 356.491 277.901H4V276.885H356.491C356.772 276.885 357 277.112 357 277.393Z" fill="#E6E6E6"/>
<path d="M166.002 274.635C166.13 273.358 165.95 272.069 165.478 270.876L167.472 257.614L161.131 256.85L159.791 270.385C159.121 271.479 158.723 272.718 158.63 273.997C158.354 277.196 159.78 279.931 161.816 280.107C163.852 280.283 165.727 277.833 166.002 274.635Z" fill="#A0616A"/>
<path d="M184.355 196.282L179.121 223.766L172.631 238.183L168.765 265.983L158.833 268.988L161.947 233.736C161.947 233.736 171.979 200.983 174.669 197.647C177.358 194.312 184.355 196.282 184.355 196.282Z" fill="#70C3F8"/>
<path d="M189.395 170.041L183.093 190.589L204.772 197.232L211.074 176.683L189.395 170.041Z" fill="#2F2E41"/>
<path d="M200.493 184.387C206.599 184.387 211.549 179.439 211.549 173.336C211.549 167.233 206.599 162.285 200.493 162.285C194.388 162.285 189.438 167.233 189.438 173.336C189.438 179.439 194.388 184.387 200.493 184.387Z" fill="#A0616A"/>
<path d="M210.738 157.779C207.334 156.131 200.896 156.904 198.594 157.158C196.537 157.385 195.112 158.577 193.71 159.749C190.528 162.409 189.133 165.651 188.688 166.793C186.583 172.192 188.656 174.462 186.456 176.736C184.099 179.172 180.795 177.522 179.36 179.875C178.056 182.012 180.474 183.879 179.54 187.287C178.463 191.22 174.325 192.084 174.747 193.584C175.215 195.249 180.808 195.949 185.267 193.947C185.868 193.676 191.155 191.223 191.411 187.246C191.575 184.695 189.482 184.432 188.903 180.756C188.501 178.2 189.151 176.029 190.188 172.566C190.911 170.153 191.272 168.946 192.051 167.824C192.427 167.282 195.967 162.355 201.216 163.275C205.842 164.085 208.952 168.94 208.353 172.001C207.999 173.809 206.316 175.171 206.978 176.485C207.466 177.454 208.72 177.386 208.877 178.293C209.024 179.144 208.06 180.016 207.327 180.679C206.402 181.516 205.572 181.915 205.259 182.089C203.033 183.329 202.208 187.03 202.22 189.332C202.239 192.769 204.145 196.997 208.007 198.462C212.344 200.108 217.634 197.696 217.834 195.751C217.95 194.622 216.286 194.269 216.02 192.334C215.719 190.153 217.628 189.089 217.021 187.736C216.471 186.511 217.272 188.26 215.755 186.531C215.57 186.32 214.591 185.167 214.574 183.717C214.551 181.827 216.174 180.581 217.07 179.577C220.424 175.821 220.952 168.733 217.845 165.27C216.081 163.305 217.173 160.894 210.738 157.779Z" fill="#2F2E41"/>
<path d="M212.359 168.494C213.358 166.229 210.714 163.347 210.37 162.98C207.79 160.235 204.086 160.136 202.261 160.086C200.663 160.044 197.238 159.951 194.647 162.249C193.245 163.492 191.937 165.567 192.524 166.504C192.883 167.076 193.923 167.105 196.003 167.161C197.873 167.211 198.55 166.965 199.596 167.444C200.368 167.798 200.559 168.189 201.235 168.764C203.065 170.319 205.314 170.557 205.98 170.627C207.551 170.792 211.375 170.723 212.359 168.494Z" fill="#2F2E41"/>
<path d="M185.973 193.85L176.597 196.733L177.319 205.383L174.434 258.728L222.753 260.169L223.369 255.205L218.426 237.326L220.589 201.779L206.887 194.57L203.281 187.362L190.3 186.641L185.973 193.85Z" fill="#70C3F8"/>
<path d="M207.247 249.717L174.073 259.809C174.073 259.809 154.037 265.54 143.219 271.307C132.402 277.073 133.687 282.307 133.687 282.307L147.39 343.58L160.371 344.301L158.61 287.937L172.631 286.027L174.794 306.665L186.333 309.549L197.872 269.901C198.701 274.871 203.304 278.302 208.305 277.669C212.482 277.141 217.579 276.331 222.392 275.129C233.209 272.427 222.392 253.321 222.392 253.321L207.247 249.717Z" fill="#2F2E41"/>
<path d="M172.991 280.354C172.991 280.354 175.155 263.053 178.761 243.589C182.367 224.126 195.348 229.172 195.348 229.172L218.425 253.681L199.675 265.936L172.991 280.354Z" fill="#2F2E41"/>
<path d="M192.564 261.662C193.511 260.795 194.237 259.715 194.68 258.511L205.014 249.956L200.798 245.161L190.77 254.354C189.541 254.723 188.418 255.381 187.495 256.273C185.155 258.473 184.394 261.461 185.794 262.949C187.194 264.437 190.225 263.861 192.564 261.662Z" fill="#A0616A"/>
<path d="M201.146 214.028L209.399 230.099L195.229 248.364L202.362 255.827L220.091 240.885L228.408 233.055C231.424 230.216 229.854 226.472 228.36 222.609C222.392 207.186 223.834 201.419 218.065 199.977C213.372 198.804 201.146 214.028 201.146 214.028Z" fill="#70C3F8"/>
<path d="M163.338 244.277L164.687 240.501L189.782 244.816L211.099 234.028L212.178 236.994L188.973 250.75L163.338 244.277Z" fill="#E6E6E6"/>
<path d="M213.258 235.106L189.242 247.244L161.793 243.279L164.417 254.796L187.623 258.842L209.562 248.334L213.258 235.106Z" fill="#3F3D56"/>
<path d="M67.3367 104.276L68.6859 100.5L93.7806 104.815L115.098 94.0266L116.177 96.9936L92.971 110.749L67.3367 104.276Z" fill="#E6E6E6"/>
<path d="M117.256 95.1055L93.2408 107.243L65.7917 103.278L68.416 114.795L91.6218 118.841L113.56 108.333L117.256 95.1055Z" fill="#3F3D56"/>
</g>
<defs>
<filter id="filter0_d_1062_1194" x="0" y="0" width="361" height="380" filterUnits="userSpaceOnUse" color-interpolation-filters="sRGB">
<feFlood flood-opacity="0" result="BackgroundImageFix"/>
<feColorMatrix in="SourceAlpha" type="matrix" values="0 0 0 0 0 0 0 0 0 0 0 0 0 0 0 0 0 0 127 0" result="hardAlpha"/>
<feOffset dy="4"/>
<feGaussianBlur stdDeviation="2"/>
<feComposite in2="hardAlpha" operator="out"/>
<feColorMatrix type="matrix" values="0 0 0 0 0 0 0 0 0 0 0 0 0 0 0 0 0 0 0.25 0"/>
<feBlend mode="normal" in2="BackgroundImageFix" result="effect1_dropShadow_1062_1194"/>
<feBlend mode="normal" in="SourceGraphic" in2="effect1_dropShadow_1062_1194" result="shape"/>
</filter>
<clipPath id="clip0_1062_1194">
<rect width="353" height="372" fill="white" transform="translate(4)"/>
</clipPath>
</defs>
</svg>
