<svg width="152" height="358" viewBox="0 0 152 358" fill="none" xmlns="http://www.w3.org/2000/svg">
<path d="M85.8541 159.362H22.5859V238.543H85.8541V159.362Z" fill="#CCCCCC"/>
<path d="M55.0546 335.253L53.9677 351.885C53.9185 352.637 54.0137 353.393 54.2469 354.102C54.48 354.81 54.8458 355.454 55.3197 355.991C55.7936 356.528 56.3646 356.946 56.9945 357.215C57.6243 357.485 58.2984 357.601 58.9716 357.556L66.604 357.038C66.9576 357.014 67.3022 356.903 67.6132 356.713C67.9242 356.523 68.1941 356.259 68.4035 355.939C68.613 355.619 68.757 355.252 68.8252 354.863C68.8935 354.474 68.8843 354.073 68.7984 353.688L64.5618 334.721L55.0546 335.253Z" fill="#E6E6E6"/>
<path d="M118.896 345.088C127.879 347.44 134.296 350.783 138.511 355.307C140.013 356.906 141.977 357.849 144.047 357.963C146.69 358.119 148.852 357.787 150.477 356.975C150.893 356.77 151.252 356.443 151.518 356.03C151.783 355.617 151.945 355.132 151.986 354.625C152.036 354.11 151.961 353.589 151.77 353.118C151.579 352.646 151.279 352.24 150.9 351.942L129.596 334.977L120.547 339.028L118.436 341.391C118.208 341.647 118.035 341.958 117.933 342.302C117.83 342.645 117.8 343.01 117.844 343.368C117.889 343.726 118.007 344.068 118.19 344.367C118.372 344.665 118.614 344.912 118.896 345.088Z" fill="#E6E6E6"/>
<path d="M91.252 73.5462L30.3574 72.9151C30.5105 62.9881 32.5741 53.2401 37.0849 44.517C40.0475 38.788 39.9835 32.5532 39.2695 27.3004C38.1678 19.1943 40.7298 10.9006 46.4229 5.74054C50.7736 1.79029 56.2647 -0.243151 61.8619 0.0232126L63.0443 0.078348C66.8958 0.257498 70.6455 1.51675 73.9489 3.74047C77.2523 5.9642 80.0036 9.08115 81.9503 12.8051C83.9289 16.7806 84.7268 21.3573 84.2287 25.8737C83.8427 30.1232 84.7663 34.4161 86.9266 38.7498C90.6536 48.266 91.4607 60.4433 91.252 73.5462Z" fill="#2F2E41"/>
<path d="M131.994 335.861L120.043 339.351L61.8458 197.446L65.4831 335.861H53.5319C40.7612 270.741 17.7045 195.585 28.0706 171.857L89.9052 167.786L131.994 335.861Z" fill="#70C3F8"/>
<path d="M61.325 49.7248C70.2213 49.7248 77.4332 41.653 77.4332 31.6959C77.4332 21.7388 70.2213 13.667 61.325 13.667C52.4287 13.667 45.2168 21.7388 45.2168 31.6959C45.2168 41.653 52.4287 49.7248 61.325 49.7248Z" fill="#FFB9B9"/>
<path d="M75.3521 64.847L48.8516 63.1023C51.4487 56.4306 52.4861 50.0061 51.4497 43.9102H71.1952C71.1504 48.5907 73.2314 56.6869 75.3521 64.847Z" fill="#FFB9B9"/>
<path d="M91.9782 173.019L33.7812 177.672L39.7566 62.2291L49.8893 59.0303L61.3207 61.9381L72.7521 55.5405L80.0268 58.449L91.9782 173.019Z" fill="#70C3F8"/>
<path d="M43.6571 256.186L3.90625 246.008C15.7262 202.138 37.0205 101.776 30.147 66.0099L50.9318 55.5415L43.6571 256.186Z" fill="#E6E6E6"/>
<path d="M24.4303 129.401L9.36133 118.932L22.2125 76.8058C23.6458 72.4589 26.3911 68.8091 29.9739 66.4876L34.303 63.6824L31.7049 106.138L24.4303 129.401Z" fill="#E6E6E6"/>
<path d="M126.536 246.59C113.99 254.714 82.6286 259.243 68.8585 253.569C67.8453 213.931 65.8581 101.812 72.2361 54.3784L95.0993 64.8468L93.0208 96.2519C82.0903 123.117 113.83 216.69 126.536 246.59Z" fill="#E6E6E6"/>
<path d="M124.719 124.169L110.689 118.934L91.9824 95.0894L95.1004 64.8475L126.277 113.7L124.719 124.169Z" fill="#E6E6E6"/>
<path d="M80.7485 146.803C80.9781 147.931 81.5977 148.911 82.4716 149.527C83.3455 150.144 84.4023 150.348 85.4103 150.094L97.3197 147.076L95.5985 138.568L83.6889 141.586C82.6808 141.841 81.8048 142.535 81.2533 143.513C80.7019 144.492 80.5204 145.675 80.7485 146.803Z" fill="#FFB9B9"/>
<path d="M75.3547 27.0428C66.4076 22.9251 57.571 22.6271 48.8541 26.4612L45.2168 11.9218H78.4724L75.3547 27.0428Z" fill="#2F2E41"/>
<path d="M91.4648 136.963L98.2199 150.921C109.582 147.374 119.429 136.193 128.877 123.005L126.279 113.7L110.171 118.352L91.4648 136.963Z" fill="#E6E6E6"/>
<path d="M86.5259 108.174H84.4474C84.4474 75.2718 78.3947 52.3427 72.4962 52.3427L71.9766 50.0164C77.2664 50.0164 80.6388 59.5593 82.5364 67.5651C85.1091 78.4183 86.5259 92.8401 86.5259 108.174Z" fill="#3F3D56"/>
<path d="M38.7211 100.032H36.6426C36.6426 69.8988 42.7372 51.1795 51.7115 51.1795L51.1919 53.5058C44.9844 53.5058 38.7211 67.8922 38.7211 100.032Z" fill="#3F3D56"/>
<path d="M85.4853 114.572C88.355 114.572 90.6814 111.968 90.6814 108.756C90.6814 105.544 88.355 102.94 85.4853 102.94C82.6155 102.94 80.2891 105.544 80.2891 108.756C80.2891 111.968 82.6155 114.572 85.4853 114.572Z" fill="#3F3D56"/>
<path d="M30.4066 113.991H28.3281C28.3281 105.653 32.5239 98.8697 37.6813 98.8697V101.196C33.67 101.196 30.4066 106.936 30.4066 113.991Z" fill="#3F3D56"/>
<path d="M47.0348 113.991H44.9563C44.9563 106.936 41.693 101.196 37.6816 101.196V98.8697C42.839 98.8697 47.0348 105.653 47.0348 113.991Z" fill="#3F3D56"/>
<path d="M45.9945 116.898C47.1424 116.898 48.073 115.856 48.073 114.571C48.073 113.287 47.1424 112.245 45.9945 112.245C44.8466 112.245 43.916 113.287 43.916 114.571C43.916 115.856 44.8466 116.898 45.9945 116.898Z" fill="#3F3D56"/>
<path d="M29.3656 116.898C30.5135 116.898 31.4441 115.856 31.4441 114.571C31.4441 113.287 30.5135 112.245 29.3656 112.245C28.2177 112.245 27.2871 113.287 27.2871 114.571C27.2871 115.856 28.2177 116.898 29.3656 116.898Z" fill="#3F3D56"/>
<path d="M3.38477 93.1793L16.353 95.771L45.9936 142.942L30.2467 138.795L3.38477 93.1793Z" fill="#70C3F8"/>
<path d="M1.08639 92.6021C0.888779 92.6054 0.69559 92.6681 0.52704 92.7836C0.358489 92.8991 0.220777 93.0632 0.128279 93.2587C0.0357798 93.4541 -0.00810831 93.6739 0.00123251 93.8948C0.0105733 94.1158 0.072799 94.3298 0.181375 94.5147L27.8878 141.565C28.0425 141.828 28.2813 142.015 28.5551 142.086L41.4461 145.481C41.6635 145.538 41.8912 145.52 42.0992 145.429C42.3072 145.338 42.4855 145.179 42.6106 144.972C42.7356 144.765 42.8015 144.52 42.7995 144.27C42.7974 144.02 42.7275 143.777 42.599 143.572L12.179 95.1616C12.0965 95.0297 11.9916 94.9173 11.8703 94.8308C11.749 94.7443 11.6136 94.6854 11.4719 94.6575L1.2942 92.6231C1.22561 92.6093 1.15607 92.6023 1.08639 92.6021Z" fill="#3F3D56"/>
<path d="M18.3672 126.244L19.1372 134.925L31.2884 133.575C32.3169 133.46 33.2628 132.894 33.9179 131.999C34.573 131.104 34.8837 129.955 34.7816 128.803C34.6795 127.652 34.173 126.594 33.3736 125.86C32.5741 125.127 31.5471 124.779 30.5186 124.894L18.3672 126.244Z" fill="#FFB9B9"/>
<path d="M7.80273 125.237C7.82038 128.197 8.88256 131.029 10.7578 133.116C12.6331 135.204 15.1695 136.377 17.8143 136.38H19.8123L21.2669 122.813L9.22308 117.96L7.80273 125.237Z" fill="#E6E6E6"/>
</svg>
