<svg width="353" height="255" viewBox="0 0 353 255" fill="none" xmlns="http://www.w3.org/2000/svg">
<path d="M180.284 254.46C190.901 254.46 199.508 245.637 199.508 234.754C199.508 223.871 190.901 215.048 180.284 215.048C169.667 215.048 161.06 223.871 161.06 234.754C161.06 245.637 169.667 254.46 180.284 254.46Z" fill="#70C3F8"/>
<path d="M295.129 253.352C305.884 250.042 317.318 246.589 325.847 238.718C333.469 231.685 338.614 220.945 335.457 210.397C332.306 199.871 322.867 192.852 313.123 189.362C307.596 187.382 301.814 186.283 296.034 185.42C289.751 184.482 283.44 183.714 277.132 182.974C251.59 179.98 225.951 178.15 200.217 177.486C187.519 177.158 174.824 177.166 162.124 177.355C150.782 177.524 138.837 177.52 128.315 172.578C120.133 168.736 112.707 161.745 110.427 152.559C107.795 141.954 112.649 131.155 119.613 123.475C123.283 119.427 127.573 116.019 131.998 112.886C136.799 109.487 141.767 106.329 146.843 103.381C156.84 97.5779 167.291 92.6389 178.089 88.6156C183.415 86.6302 188.821 84.9174 194.273 83.3373C198.877 82.003 203.496 80.6668 207.946 78.8489C216.548 75.3346 224.729 69.3817 226.917 59.6224C228.99 50.373 225.494 40.3321 219.367 33.4608C212.278 25.5113 201.589 22.0265 191.342 21.4627C179.837 20.8297 168.598 23.7811 157.785 27.5268C146.252 31.5219 134.967 36.1156 123.191 39.3516C111.513 42.5573 99.6084 44.8256 87.5864 46.1357C81.7013 46.7781 75.6383 47.5034 69.7181 47.0116C64.7564 46.5995 59.8202 45.1037 56.1635 41.4942C53.0281 38.3992 51.1603 34.1457 51.8025 29.657C51.9191 28.8417 53.1273 29.1883 53.0114 29.9986C52.2298 35.4627 55.8532 40.4977 60.3183 43.0768C65.4787 46.0577 71.7582 46.0617 77.5036 45.7208C89.9611 44.9496 102.334 43.1161 114.495 40.2394C126.444 37.4418 137.966 33.4425 149.476 29.1704C160.407 25.1129 171.582 21.1528 183.26 20.274C193.393 19.5115 204.052 21.0246 212.879 26.4526C220.637 31.2231 226.342 39.1787 228.16 48.3079C229.936 57.2289 227.476 66.2079 220.888 72.4333C214.067 78.8788 204.715 81.6345 195.999 84.1725C184.944 87.3916 174.126 91.1544 163.655 96.0401C153.042 100.978 142.863 106.844 133.231 113.573C123.934 120.085 114.759 128.28 111.819 139.898C110.449 145.309 110.702 151.049 112.994 156.161C115.032 160.706 118.388 164.529 122.297 167.478C131.625 174.514 143.382 175.959 154.65 176.103C167.305 176.264 179.96 175.826 192.619 176.039C218.418 176.473 244.164 178.083 269.857 180.868C276.295 181.567 282.725 182.339 289.147 183.184C294.923 183.945 300.719 184.701 306.398 186.052C316.495 188.455 326.321 193.074 332.597 201.85C335.383 205.654 337.109 210.162 337.59 214.893C338.03 219.829 336.85 224.775 334.673 229.167C329.854 238.887 320.826 245.07 311.239 249.132C306.105 251.307 300.778 252.955 295.462 254.592C294.688 254.83 294.357 253.59 295.129 253.352Z" fill="#F2F2F2"/>
<path d="M52.6122 40.0538C58.1515 40.0538 62.6421 35.4508 62.6421 29.7726C62.6421 24.0945 58.1515 19.4914 52.6122 19.4914C47.0728 19.4914 42.5823 24.0945 42.5823 29.7726C42.5823 35.4508 47.0728 40.0538 52.6122 40.0538Z" fill="#F2F2F2"/>
<path d="M122.194 59.5453C127.734 59.5453 132.224 54.9422 132.224 49.2641C132.224 43.5859 127.734 38.9829 122.194 38.9829C116.655 38.9829 112.165 43.5859 112.165 49.2641C112.165 54.9422 116.655 59.5453 122.194 59.5453Z" fill="#F2F2F2"/>
<path d="M181.12 20.5624C186.659 20.5624 191.15 15.9593 191.15 10.2812C191.15 4.60305 186.659 0 181.12 0C175.581 0 171.09 4.60305 171.09 10.2812C171.09 15.9593 175.581 20.5624 181.12 20.5624Z" fill="#F2F2F2"/>
<path d="M217.896 64.2575C223.436 64.2575 227.926 59.6544 227.926 53.9763C227.926 48.2981 223.436 43.6951 217.896 43.6951C212.357 43.6951 207.866 48.2981 207.866 53.9763C207.866 59.6544 212.357 64.2575 217.896 64.2575Z" fill="#F2F2F2"/>
<path d="M168.165 114.807C173.704 114.807 178.195 110.204 178.195 104.525C178.195 98.8473 173.704 94.2443 168.165 94.2443C162.626 94.2443 158.135 98.8473 158.135 104.525C158.135 110.204 162.626 114.807 168.165 114.807Z" fill="#F2F2F2"/>
<path d="M105.06 139.225C110.6 139.225 115.09 134.621 115.09 128.943C115.09 123.265 110.6 118.662 105.06 118.662C99.5208 118.662 95.0303 123.265 95.0303 128.943C95.0303 134.621 99.5208 139.225 105.06 139.225Z" fill="#F2F2F2"/>
<path d="M171.926 177.351C177.465 177.351 181.956 172.748 181.956 167.069C181.956 161.391 177.465 156.788 171.926 156.788C166.387 156.788 161.896 161.391 161.896 167.069C161.896 172.748 166.387 177.351 171.926 177.351Z" fill="#F2F2F2"/>
<path d="M243.807 198.77C249.346 198.77 253.837 194.167 253.837 188.489C253.837 182.81 249.346 178.207 243.807 178.207C238.267 178.207 233.777 182.81 233.777 188.489C233.777 194.167 238.267 198.77 243.807 198.77Z" fill="#F2F2F2"/>
<path d="M327.807 194.058C333.347 194.058 337.837 189.454 337.837 183.776C337.837 178.098 333.347 173.495 327.807 173.495C322.268 173.495 317.777 178.098 317.777 183.776C317.777 189.454 322.268 194.058 327.807 194.058Z" fill="#F2F2F2"/>
<path d="M178.225 29.1315C148.181 29.3491 123.581 54.3761 123.154 85.171C123.15 85.4554 123.148 87.4545 123.148 90.0693C123.148 93.9031 124.634 97.5798 127.279 100.291C129.923 103.002 133.51 104.525 137.25 104.525C139.104 104.525 140.94 104.15 142.653 103.422C144.365 102.694 145.921 101.628 147.231 100.283C148.542 98.9384 149.581 97.3424 150.289 95.5861C150.997 93.8297 151.361 91.9476 151.359 90.0471C151.358 88.2684 151.357 87.0374 151.357 86.9618C151.356 82.2025 152.564 77.5248 154.861 73.3891C157.159 69.2533 160.467 65.8019 164.461 63.3742C168.454 60.9466 172.996 59.6264 177.638 59.5435C182.28 59.4607 186.864 60.618 190.937 62.9016C195.011 65.1852 198.434 68.5165 200.871 72.5677C203.308 76.619 204.673 81.2506 204.834 86.0071C204.995 90.7636 203.945 95.481 201.787 99.6953C199.63 103.91 196.44 107.476 192.53 110.043L192.535 110.049C192.535 110.049 172.463 123.294 166.344 141.465L166.349 141.466C165.273 145.188 164.728 149.05 164.73 152.933C164.73 154.529 164.822 168.492 164.999 179.826C165.061 183.736 166.62 187.465 169.34 190.208C172.06 192.95 175.723 194.487 179.538 194.486C181.455 194.486 183.353 194.097 185.123 193.342C186.893 192.587 188.5 191.481 189.852 190.087C191.203 188.693 192.272 187.039 192.998 185.22C193.723 183.401 194.091 181.453 194.079 179.488C194.017 169.109 193.984 157.023 193.984 156.146C193.984 144.989 204.484 133.872 213.109 126.623C223.041 118.275 230.189 106.899 233.059 94.0659C233.694 91.4238 234.045 88.7183 234.104 85.9979C234.104 78.4953 232.655 71.0669 229.842 64.1407C227.029 57.2144 222.907 50.9272 217.713 45.6413C212.519 40.3554 206.355 36.1752 199.578 33.3417C192.801 30.5082 185.544 29.0773 178.225 29.1315Z" fill="#70C3F8"/>
<path d="M262.636 116.947C269.56 116.947 275.174 111.193 275.174 104.095C275.174 96.9977 269.56 91.2438 262.636 91.2438C255.712 91.2438 250.099 96.9977 250.099 104.095C250.099 111.193 255.712 116.947 262.636 116.947Z" fill="#2F2E41"/>
<path d="M239.469 249.374H234.345L231.908 229.117H239.47L239.469 249.374Z" fill="#A0616A"/>
<path d="M230.686 247.873H240.567V254.251H224.464C224.464 253.413 224.625 252.584 224.938 251.81C225.25 251.037 225.709 250.334 226.286 249.741C226.864 249.149 227.55 248.679 228.305 248.359C229.059 248.038 229.868 247.873 230.686 247.873Z" fill="#2F2E41"/>
<path d="M279.17 249.374H274.047L271.609 229.117H279.172L279.17 249.374Z" fill="#A0616A"/>
<path d="M270.387 247.873H280.268V254.251H264.166C264.166 253.413 264.327 252.584 264.639 251.81C264.952 251.037 265.41 250.334 265.988 249.741C266.566 249.149 267.252 248.679 268.006 248.359C268.761 248.038 269.57 247.873 270.387 247.873Z" fill="#2F2E41"/>
<path d="M260.731 117.022C266.4 117.022 270.996 112.311 270.996 106.5C270.996 100.689 266.4 95.9788 260.731 95.9788C255.062 95.9788 250.467 100.689 250.467 106.5C250.467 112.311 255.062 117.022 260.731 117.022Z" fill="#A0616A"/>
<path d="M266.849 150.965L271.442 140.148C272.557 137.611 272.877 134.781 272.357 132.049C271.836 129.318 270.502 126.819 268.537 124.898C268.134 124.489 267.705 124.107 267.254 123.754C264.988 121.937 262.195 120.946 259.318 120.939C257.384 120.947 255.474 121.382 253.718 122.216C253.568 122.284 253.421 122.357 253.271 122.43C252.983 122.571 252.699 122.726 252.423 122.884C250.624 123.943 249.092 125.421 247.953 127.198C246.813 128.974 246.097 131.001 245.861 133.114L243.834 150.523C243.325 151.89 225.137 201.24 231.498 238.916C231.566 239.318 231.757 239.688 232.044 239.971C232.331 240.254 232.699 240.435 233.094 240.488L239.543 241.388C240.013 241.454 240.491 241.335 240.88 241.054C241.268 240.773 241.539 240.352 241.636 239.876L252.456 187.009C252.524 186.68 252.696 186.385 252.947 186.169C253.198 185.953 253.512 185.829 253.839 185.818C254.167 185.807 254.488 185.908 254.752 186.106C255.017 186.304 255.209 186.587 255.298 186.91L270.585 242.506C270.694 242.91 270.929 243.266 271.255 243.52C271.58 243.774 271.977 243.911 272.386 243.911C272.508 243.91 272.63 243.899 272.75 243.877L280.627 242.322C281.085 242.234 281.495 241.974 281.776 241.593C282.056 241.212 282.188 240.737 282.145 240.261C280.987 227.028 274.835 160.745 266.849 150.965Z" fill="#2F2E41"/>
<path d="M220.841 115.256C220.77 115.882 220.834 116.516 221.027 117.114C221.221 117.711 221.54 118.258 221.962 118.716C222.384 119.173 222.899 119.53 223.47 119.762C224.042 119.993 224.656 120.094 225.269 120.056L231.006 134.189L235.346 127.594L229.233 115.184C229.102 114.132 228.6 113.166 227.821 112.469C227.042 111.771 226.04 111.391 225.006 111.4C223.971 111.409 222.976 111.806 222.209 112.517C221.441 113.228 220.955 114.203 220.841 115.256Z" fill="#A0616A"/>
<path d="M260.162 165.196C260.772 165.121 261.359 164.91 261.881 164.578C262.402 164.246 262.847 163.8 263.183 163.273C263.518 162.745 263.737 162.149 263.824 161.525C263.91 160.902 263.862 160.266 263.684 159.664L275.755 150.651L268.487 147.862L258.138 156.848C257.171 157.223 256.371 157.949 255.891 158.888C255.411 159.827 255.283 160.914 255.533 161.943C255.782 162.972 256.391 163.872 257.245 164.471C258.098 165.071 259.136 165.328 260.162 165.196Z" fill="#A0616A"/>
<path d="M240.483 143.612C240.02 143.611 239.559 143.564 239.105 143.472C238.007 143.258 236.977 142.77 236.106 142.052C235.236 141.333 234.551 140.407 234.112 139.353L226.073 129.306C225.904 129.094 225.78 128.846 225.711 128.581C225.642 128.316 225.628 128.038 225.672 127.767C225.716 127.496 225.816 127.238 225.966 127.01C226.115 126.781 226.31 126.589 226.538 126.444L232.257 122.815C232.468 122.681 232.703 122.592 232.948 122.551C233.193 122.511 233.444 122.52 233.685 122.58C233.927 122.639 234.154 122.747 234.355 122.897C234.556 123.047 234.725 123.236 234.854 123.454L240.519 133.021L251.369 124.802C252.233 124.338 253.231 124.208 254.181 124.435C255.13 124.663 255.969 125.233 256.542 126.042C257.116 126.851 257.386 127.844 257.304 128.84C257.222 129.837 256.793 130.769 256.096 131.468L245.267 141.594C243.994 142.887 242.275 143.612 240.483 143.612Z" fill="#2F2E41"/>
<path d="M269.8 158.722C269.785 158.722 269.77 158.722 269.756 158.721C269.492 158.715 269.232 158.651 268.994 158.536C268.756 158.42 268.544 158.254 268.372 158.049L263.288 151.968C263.114 151.761 262.986 151.519 262.911 151.257C262.836 150.996 262.816 150.721 262.852 150.45C262.889 150.18 262.981 149.921 263.122 149.69C263.263 149.459 263.451 149.261 263.672 149.11L273.193 142.604L264.568 131.975C264.066 131.117 263.882 130.103 264.049 129.118C264.217 128.133 264.724 127.243 265.479 126.61C266.234 125.976 267.186 125.643 268.161 125.67C269.136 125.696 270.069 126.082 270.789 126.756L281.272 137.257C282.097 138.029 282.727 138.995 283.107 140.072C283.488 141.149 283.608 142.305 283.457 143.44C283.306 144.575 282.888 145.655 282.24 146.588C281.592 147.522 280.733 148.28 279.736 148.797L271.168 158.116C270.992 158.307 270.78 158.46 270.545 158.564C270.31 158.668 270.056 158.722 269.8 158.722Z" fill="#2F2E41"/>
<path d="M258.121 136.318C258.04 136.318 257.958 136.312 257.877 136.302C257.523 136.258 257.189 136.11 256.914 135.877C256.639 135.644 256.435 135.335 256.327 134.987L252.506 122.98C252.41 122.676 252.425 122.347 252.547 122.054C252.67 121.761 252.892 121.523 253.172 121.384L253.296 121.324C253.408 121.269 253.52 121.215 253.633 121.163C255.415 120.316 257.354 119.875 259.318 119.868C261.868 119.873 264.36 120.641 266.49 122.077C266.776 122.272 266.975 122.574 267.046 122.918C267.116 123.262 267.052 123.621 266.867 123.917L259.7 135.427C259.532 135.7 259.299 135.925 259.023 136.081C258.746 136.237 258.436 136.318 258.121 136.318Z" fill="#E6E6E6"/>
<path d="M272.521 98.358C274.787 98.358 276.623 96.4752 276.623 94.1527C276.623 91.8302 274.787 89.9474 272.521 89.9474C270.255 89.9474 268.418 91.8302 268.418 94.1527C268.418 96.4752 270.255 98.358 272.521 98.358Z" fill="#2F2E41"/>
<path d="M258.457 89.5303C255.576 89.5303 252.812 90.7038 250.774 92.7926C248.736 94.8813 247.592 97.7143 247.592 100.668V105.381H253.246L255.95 100.668L256.761 105.381H273.92L269.323 100.668C269.323 97.7143 268.178 94.8813 266.14 92.7926C264.103 90.7038 261.339 89.5303 258.457 89.5303Z" fill="#2F2E41"/>
<path d="M274.629 91.2722C275.083 89.818 276.022 88.5744 277.282 87.7599C278.542 86.9454 280.041 86.6122 281.517 86.8189C284.131 87.2669 286.198 89.4211 287.43 91.8271C288.662 94.2331 289.231 96.926 290.059 99.5071C290.887 102.088 292.061 104.684 294.151 106.354C296.241 108.025 299.449 108.479 301.502 106.76C301.268 108.551 300.49 110.221 299.278 111.535C298.067 112.848 296.483 113.737 294.751 114.078C293.02 114.418 291.228 114.191 289.628 113.43C288.029 112.669 286.704 111.412 285.84 109.836C284.757 107.86 284.477 105.545 284.156 103.303C283.835 101.061 283.417 98.7406 282.124 96.9025C280.831 95.0645 278.41 93.864 276.355 94.7012L274.629 91.2722Z" fill="#2F2E41"/>
<path d="M141.232 97.6878C137.492 97.6873 133.905 96.1641 131.26 93.4531C128.616 90.7421 127.13 87.0654 127.13 83.2316C127.13 80.6168 127.131 78.6177 127.135 78.3333C127.254 69.3773 129.455 60.5794 133.554 52.6694C126.819 62.1208 123.115 73.4842 122.956 85.1875C122.952 85.4718 122.95 87.4709 122.951 90.0857C122.951 93.9195 124.437 97.5963 127.081 100.307C129.726 103.018 133.313 104.541 137.053 104.542C140.126 104.541 143.115 103.511 145.566 101.61C148.016 99.7086 149.794 97.0394 150.63 94.0077C148.048 96.3813 144.7 97.6921 141.232 97.6878Z" fill="#3F3D56"/>
<path d="M179.181 59.5921C183.505 59.8037 187.714 61.0879 191.447 63.3344C195.18 65.5808 198.325 68.7224 200.613 72.4894C202.9 76.2563 204.262 80.5361 204.58 84.9613C204.899 89.3864 204.165 93.8247 202.441 97.8951C204.934 94.8941 206.766 91.3774 207.813 87.5848C208.86 83.7922 209.097 79.8128 208.507 75.9179C207.917 72.023 206.515 68.3043 204.397 65.0152C202.278 61.7261 199.492 58.9439 196.229 56.8584C192.966 54.773 189.303 53.4331 185.49 52.9304C181.676 52.4276 177.801 52.7737 174.13 53.945C170.458 55.1164 167.077 57.0854 164.215 59.7179C161.353 62.3505 159.079 65.5846 157.547 69.1997C160.194 66.0071 163.522 63.4805 167.273 61.8148C171.024 60.149 175.098 59.3885 179.181 59.5921Z" fill="#3F3D56"/>
<path d="M183.52 187.648C179.704 187.649 176.041 186.112 173.321 183.37C170.601 180.627 169.042 176.898 168.98 172.988C168.803 161.655 168.712 147.691 168.712 146.095C168.709 142.213 169.255 138.35 170.331 134.628L170.326 134.627C170.961 132.758 171.728 130.94 172.622 129.186C169.879 132.932 167.697 137.076 166.146 141.481L166.152 141.482C165.076 145.205 164.53 149.067 164.533 152.949C164.533 154.545 164.624 168.509 164.801 179.842C164.863 183.753 166.422 187.481 169.142 190.224C171.862 192.967 175.525 194.503 179.34 194.502C182.486 194.502 185.547 193.456 188.064 191.521C190.581 189.586 192.418 186.867 193.299 183.772C190.626 186.271 187.137 187.653 183.52 187.648Z" fill="#3F3D56"/>
<path d="M176.049 249.653C173.318 248.434 170.901 246.581 168.988 244.24C167.076 241.899 165.72 239.135 165.028 236.165C164.337 233.195 164.328 230.101 165.002 227.127C165.677 224.153 167.016 221.381 168.915 219.029C166.713 220.676 164.879 222.785 163.533 225.215C162.187 227.645 161.361 230.341 161.11 233.123C160.858 235.906 161.187 238.711 162.073 241.353C162.96 243.996 164.385 246.414 166.254 248.449C168.122 250.483 170.392 252.087 172.911 253.154C175.431 254.221 178.143 254.726 180.867 254.637C183.592 254.547 186.267 253.864 188.714 252.634C191.162 251.404 193.326 249.654 195.063 247.501C192.354 249.531 189.172 250.798 185.836 251.175C182.5 251.553 179.126 251.028 176.049 249.653Z" fill="#3F3D56"/>
</svg>
