<svg width="239" height="274" viewBox="0 0 239 274" fill="none" xmlns="http://www.w3.org/2000/svg">
<path d="M196.925 260.422L177.105 274C177.105 274 103.539 221.803 91.0887 194.613C78.6383 167.422 102.074 100.16 102.074 100.16L154.073 128.067L196.925 260.422Z" fill="#FFB6B6"/>
<path d="M47.8783 81.5562L32.4983 82.9872C32.4983 82.9872 24.4421 100.16 49.343 101.591L47.8783 81.5562Z" fill="#FFB6B6"/>
<path d="M47.8783 108.031L32.4983 109.462C32.4983 109.462 24.4421 126.636 49.343 128.067L47.8783 108.031Z" fill="#FFB6B6"/>
<path d="M47.8783 136.653L32.4983 138.084C32.4983 138.084 24.4421 155.258 49.343 156.689L47.8783 136.653Z" fill="#FFB6B6"/>
<path d="M52.2726 165.275L36.8927 166.706C36.8927 166.706 28.8365 183.879 53.7374 185.31L52.2726 165.275Z" fill="#FFB6B6"/>
<path d="M40.3907 88.4552H41.5577V57.2206C41.5577 54.8466 42.0363 52.4958 42.9661 50.3025C43.896 48.1092 45.2589 46.1164 46.9771 44.4377C48.6952 42.759 50.735 41.4274 52.9799 40.5189C55.2248 39.6104 57.6308 39.1428 60.0607 39.1428H127.792C130.222 39.1428 132.628 39.6104 134.873 40.5189C137.118 41.4274 139.158 42.759 140.876 44.4377C142.594 46.1163 143.957 48.1092 144.887 50.3025C145.817 52.4958 146.295 54.8465 146.295 57.2205V228.576C146.295 230.95 145.817 233.301 144.887 235.494C143.957 237.688 142.594 239.68 140.876 241.359C139.158 243.038 137.118 244.369 134.873 245.278C132.628 246.186 130.222 246.654 127.792 246.654H60.0608C55.1535 246.654 50.4471 244.749 46.9771 241.359C43.5071 237.969 41.5577 233.371 41.5577 228.576V110.689H40.3907V88.4552Z" fill="#3F3D56"/>
<path d="M59.314 43.8461H68.1552C67.7486 44.82 67.5934 45.8766 67.7033 46.9229C67.8131 47.9692 68.1847 48.9731 68.7851 49.8461C69.3856 50.7191 70.1966 51.4344 71.1467 51.929C72.0968 52.4236 73.1568 52.6823 74.2333 52.6824H113.036C114.112 52.6823 115.172 52.4236 116.122 51.929C117.073 51.4344 117.884 50.7191 118.484 49.8461C119.085 48.9731 119.456 47.9692 119.566 46.9229C119.676 45.8766 119.521 44.82 119.114 43.8461H127.372C131.036 43.8461 134.551 45.2684 137.142 47.8002C139.734 50.332 141.19 53.7658 141.19 57.3463V228.451C141.19 230.223 140.832 231.979 140.138 233.617C139.443 235.255 138.425 236.743 137.142 237.997C135.859 239.25 134.336 240.245 132.66 240.923C130.983 241.602 129.186 241.951 127.372 241.951H59.314C57.4994 241.951 55.7026 241.602 54.0262 240.923C52.3497 240.245 50.8264 239.25 49.5433 237.997C48.2602 236.743 47.2424 235.255 46.548 233.617C45.8536 231.979 45.4962 230.223 45.4962 228.451V57.3463C45.4962 55.5734 45.8536 53.8179 46.548 52.18C47.2424 50.5421 48.2602 49.0538 49.5433 47.8002C50.8264 46.5466 52.3497 45.5522 54.0262 44.8737C55.7026 44.1953 57.4994 43.8461 59.314 43.8461Z" fill="white"/>
<path opacity="0.2" d="M32.5803 82.77L32.417 83.2032L41.4758 86.4635L41.6392 86.0303L32.5803 82.77Z" fill="black"/>
<path opacity="0.2" d="M32.5803 109.547L32.417 109.98L41.4758 113.24L41.6392 112.807L32.5803 109.547Z" fill="black"/>
<path opacity="0.2" d="M32.5803 138.17L32.417 138.604L41.4758 141.864L41.6392 141.431L32.5803 138.17Z" fill="black"/>
<path opacity="0.2" d="M37.3261 166.803L37.1217 167.219L41.5321 169.287L41.7365 168.871L37.3261 166.803Z" fill="black"/>
<path d="M120.152 146.446H60.172C59.1214 146.444 58.1142 146.036 57.3713 145.31C56.6284 144.585 56.2106 143.6 56.2094 142.574V140.647C56.2106 139.621 56.6284 138.637 57.3713 137.911C58.1142 137.185 59.1214 136.777 60.172 136.776H120.152C121.202 136.777 122.209 137.185 122.952 137.911C123.695 138.637 124.113 139.621 124.114 140.647V142.574C124.113 143.6 123.695 144.585 122.952 145.31C122.209 146.036 121.202 146.444 120.152 146.446Z" fill="#F0F0F0"/>
<path d="M120.152 163.057H60.172C59.1214 163.056 58.1142 162.648 57.3713 161.922C56.6284 161.196 56.2106 160.212 56.2094 159.185V157.258C56.2106 156.232 56.6284 155.248 57.3713 154.522C58.1142 153.796 59.1214 153.388 60.172 153.387H120.152C121.202 153.388 122.209 153.796 122.952 154.522C123.695 155.248 124.113 156.232 124.114 157.258V159.185C124.113 160.212 123.695 161.196 122.952 161.922C122.209 162.648 121.202 163.056 120.152 163.057Z" fill="#F0F0F0"/>
<path d="M123.152 142.73H63.1722C62.0691 142.729 61.0116 142.301 60.2315 141.538C59.4515 140.776 59.0128 139.743 59.0115 138.665V136.738C59.0128 135.661 59.4515 134.627 60.2315 133.865C61.0116 133.103 62.0691 132.675 63.1722 132.673H123.152C124.255 132.675 125.313 133.103 126.093 133.865C126.873 134.627 127.311 135.661 127.313 136.738V138.665C127.311 139.743 126.873 140.776 126.093 141.538C125.313 142.301 124.255 142.729 123.152 142.73ZM63.1722 133.448C62.2792 133.449 61.4231 133.796 60.7917 134.413C60.1602 135.029 59.805 135.866 59.804 136.738V138.665C59.805 139.538 60.1602 140.374 60.7917 140.991C61.4231 141.608 62.2792 141.955 63.1722 141.956H123.152C124.045 141.955 124.901 141.608 125.533 140.991C126.164 140.374 126.519 139.538 126.52 138.665V136.738C126.519 135.866 126.164 135.029 125.533 134.413C124.901 133.796 124.045 133.449 123.152 133.448H63.1722Z" fill="#3F3D56"/>
<path d="M123.152 159.342H63.1722C62.0691 159.341 61.0116 158.912 60.2315 158.15C59.4515 157.388 59.0128 156.355 59.0115 155.277V153.35C59.0128 152.272 59.4515 151.239 60.2315 150.477C61.0116 149.715 62.0691 149.286 63.1722 149.285H123.152C124.255 149.286 125.313 149.715 126.093 150.477C126.873 151.239 127.311 152.272 127.313 153.35V155.277C127.311 156.355 126.873 157.388 126.093 158.15C125.313 158.912 124.255 159.341 123.152 159.342ZM63.1722 150.059C62.2792 150.06 61.4231 150.407 60.7917 151.024C60.1602 151.641 59.805 152.477 59.804 153.35V155.277C59.805 156.149 60.1602 156.986 60.7917 157.603C61.4231 158.22 62.2792 158.567 63.1722 158.568H123.152C124.045 158.567 124.901 158.22 125.533 157.603C126.164 156.986 126.519 156.149 126.52 155.277V153.35C126.519 152.477 126.164 151.641 125.533 151.024C124.901 150.407 124.045 150.06 123.152 150.059H63.1722Z" fill="#3F3D56"/>
<path d="M141.378 57.2929V94.61C135.309 96.17 128.955 96.3489 122.804 95.1331C116.653 93.9173 110.869 91.3392 105.898 87.597C100.927 83.8548 96.9011 79.0483 94.1296 73.5474C91.3581 68.0464 89.9151 61.9976 89.9116 55.8663C89.9116 54.7719 89.9566 53.6889 90.0466 52.6173H112.564C113.644 52.6183 114.707 52.3597 115.66 51.8642C116.614 51.3688 117.427 50.6518 118.03 49.7764C118.632 48.9011 119.005 47.8943 119.115 46.845C119.225 45.7957 119.069 44.736 118.66 43.7595H127.521C129.341 43.7589 131.143 44.1085 132.824 44.7883C134.505 45.4681 136.033 46.4649 137.319 47.7216C138.606 48.9784 139.627 50.4705 140.323 52.1128C141.02 53.7551 141.378 55.5153 141.378 57.2929Z" fill="#F0F0F0"/>
<path d="M79.9104 240.058C79.9104 240.844 79.8803 241.621 79.8154 242.388H59.2828C57.4637 242.388 55.6624 242.038 53.9817 241.358C52.3011 240.678 50.774 239.681 49.4878 238.424C48.2015 237.168 47.1811 235.676 46.4851 234.034C45.789 232.392 45.4308 230.632 45.4309 228.855V210.504C49.7348 209.957 54.1086 210.313 58.2608 211.547C62.413 212.782 66.2482 214.867 69.5108 217.663C72.7734 220.46 75.3884 223.903 77.1817 227.765C78.9749 231.626 79.9052 235.817 79.9104 240.058Z" fill="#70C3F8"/>
<path d="M103.149 183.088H74.6737C73.6232 183.087 72.6159 182.679 71.8731 181.953C71.1302 181.227 70.7124 180.243 70.7112 179.217V177.29C70.7124 176.263 71.1302 175.279 71.8731 174.554C72.6159 173.828 73.6232 173.419 74.6737 173.418H103.149C104.2 173.419 105.207 173.828 105.95 174.554C106.693 175.279 107.111 176.263 107.112 177.29V179.217C107.111 180.243 106.693 181.227 105.95 181.953C105.207 182.679 104.2 183.087 103.149 183.088Z" fill="#70C3F8"/>
<path d="M106.15 179.373H77.6739C76.5708 179.372 75.5133 178.943 74.7333 178.181C73.9533 177.419 73.5145 176.386 73.5132 175.308V173.381C73.5145 172.303 73.9533 171.27 74.7333 170.508C75.5133 169.746 76.5708 169.317 77.6739 169.316H106.15C107.253 169.317 108.31 169.746 109.09 170.508C109.87 171.27 110.309 172.303 110.31 173.381V175.308C110.309 176.386 109.87 177.419 109.09 178.181C108.31 178.943 107.253 179.372 106.15 179.373ZM77.6739 170.09C76.7809 170.091 75.9248 170.438 75.2934 171.055C74.6619 171.672 74.3068 172.509 74.3058 173.381V175.308C74.3068 176.181 74.6619 177.017 75.2934 177.634C75.9248 178.251 76.7809 178.598 77.6739 178.599H106.15C107.043 178.598 107.899 178.251 108.53 177.634C109.162 177.017 109.517 176.181 109.518 175.308V173.381C109.517 172.509 109.162 171.672 108.53 171.055C107.899 170.438 107.043 170.091 106.15 170.09H77.6739Z" fill="#3F3D56"/>
<path d="M219.793 245.837L188.129 202.126L185.199 143.451L154.439 93.3626L145.651 71.8962C145.651 71.8962 125.144 74.0429 141.989 114.829L148.947 136.653C142.675 149.851 139.426 164.227 139.426 178.778V228.788C139.426 240.564 170.928 264.202 177.613 274L203.547 256.901L219.793 245.837Z" fill="#FFB6B6"/>
<path opacity="0.2" d="M148.062 97.6071L154.177 94.6708L153.969 94.2563L148.319 96.9695L139.79 75.1218L139.348 75.2866L148.062 97.6071Z" fill="black"/>
<path d="M239 193.463L219.547 178.652L204.669 198.017L224.122 212.827L239 193.463Z" fill="#F0F0F0"/>
<path d="M38.942 35.917C41.0769 34.4215 43.5323 33.4422 46.1117 33.0575C48.691 32.6728 51.3225 32.8934 53.7955 33.7017L54.4716 17.9525L18.1161 16.5645L16.5645 52.7061L32.2336 53.3044C31.4833 50.0791 31.7212 46.7004 32.9165 43.6022C34.1119 40.504 36.2102 37.8277 38.942 35.917Z" fill="#ECECEC"/>
</svg>
