<?xml version="1.0" encoding="UTF-8"?>
<svg id="Layer_1" data-name="Layer 1" xmlns="http://www.w3.org/2000/svg" xmlns:xlink="http://www.w3.org/1999/xlink" viewBox="0 0 2299.52 1197.95">
  <defs>
    <style>
      .cls-1 {
        fill: #8cc1d1;
        stroke: #fff;
        stroke-miterlimit: 10;
        stroke-width: 5px;
      }

      .cls-2 {
        fill: url(#linear-gradient);
      }
    </style>
    <linearGradient id="linear-gradient" x1="1724.39" y1="923.36" x2="2199.81" y2="447.94" gradientUnits="userSpaceOnUse">
      <stop offset="0" stop-color="#8cc1d1"/>
      <stop offset=".25" stop-color="#96c1d8"/>
      <stop offset=".68" stop-color="#b3c4eb"/>
      <stop offset="1" stop-color="#cdc7fd"/>
    </linearGradient>
  </defs>
  <path class="cls-2" d="M1818.97,684.72h0c0-14.34,11.63-25.97,25.97-25.97h175.03s0-.06,0-.06c.38,.01,.75,.06,1.13,.06,18.09,0,32.75-14.66,32.75-32.75s-14.66-32.75-32.75-32.75c-.38,0-.75,.04-1.13,.06v-.06h-174.91c-14.34,0-25.97-11.63-25.97-25.97h0c0-14.34,11.63-25.97,25.97-25.97h178.3c.96,0,1.9,.06,2.83,.16,44.4,2.63,79.6,39.47,79.6,84.54s-35.2,81.9-79.6,84.54c-.93,.1-1.88,.16-2.83,.16h-178.42c-14.34,0-25.97-11.63-25.97-25.97Zm192.71,106.85h-166.62c-14.34,0-25.97,11.63-25.97,25.97h0c0,14.34,11.63,25.97,25.97,25.97h166.62c14.34,0,25.97-11.63,25.97-25.97h0c0-14.34-11.63-25.97-25.97-25.97Zm120.79,10.78l-58.23-73.12c-8.94-11.22-25.28-13.07-36.5-4.14h0c-11.22,8.94-13.07,25.28-4.14,36.5l58.23,73.12c8.94,11.22,25.28,13.07,36.5,4.14h0c11.22-8.94,13.07-25.28,4.14-36.5Zm139.38-247.56c-16.93-40.03-41.17-75.98-72.04-106.85-30.87-30.87-66.82-55.1-106.85-72.04-41.46-17.53-85.49-26.43-130.86-26.43s-89.4,8.89-130.86,26.43c-40.03,16.93-75.98,41.17-106.85,72.04-30.87,30.87-55.1,66.82-72.04,106.85-17.53,41.46-26.43,85.49-26.43,130.86s8.89,89.4,26.43,130.86c16.93,40.03,41.17,75.98,72.04,106.85,30.87,30.87,66.82,55.1,106.85,72.04,41.46,17.54,85.49,26.43,130.86,26.43s89.4-8.89,130.86-26.43c40.03-16.93,75.98-41.17,106.85-72.04,30.87-30.87,55.1-66.82,72.04-106.85,17.54-41.46,26.43-85.49,26.43-130.86s-8.89-89.4-26.43-130.86Zm-309.75,416.17c-157.32,0-285.31-127.99-285.31-285.31s127.99-285.31,285.31-285.31,285.31,127.99,285.31,285.31-127.99,285.31-285.31,285.31Z"/>
  <path class="cls-1" d="M1627.93,1184.53v-82.29c0-4.68,3.69-8.37,8.37-8.37h29.37c19.86,0,36.46,15.75,36.46,35.61,0,18.44-14.19,32.07-32.35,33.91,13.76,20.57,36.61,6.81,36.61,21.42,0,5.82-5.25,8.66-12.63,8.66-14.33,0-37.17-10.64-46.25-29.94h-2.27v11.49c.14,2.13,.14,3.69,.14,4.54,0,5.96-.14,8.65-2.55,11.07-1.84,1.7-3.97,2.55-6.1,2.55-2.27,0-4.26-.85-6.1-2.41-1.84-1.56-2.7-3.55-2.7-6.24Zm17.31-38.31h20.43c13.48,0,19.15-8.94,19.15-16.6,0-.57,.43-4.26-2.41-9.36-2.98-5.11-8.65-9.08-16.74-9.08h-20.43v35.04Zm65.4-2.84c0-28.66,23.69-51.64,52.64-51.64s52.78,23.13,52.78,51.64-23.84,51.64-52.78,51.64c-21.85,0-40.44-12.91-48.52-31.64-2.7-6.24-4.11-12.91-4.11-20.01Zm52.64,34.62c19.44,0,35.33-14.9,35.33-34.62s-16.03-34.62-35.33-34.62-35.33,15.32-35.33,34.62,15.04,34.62,35.33,34.62Zm55.61-6.53c0-.85,.14-2.98,1.99-5.11,1.7-2.13,4.4-3.41,7.24-3.41,3.26,0,6.1,1.7,7.66,5.53,2.27,5.82,8.09,9.93,14.9,9.93,21,0,20.57-30.93,0-30.93s-29.23-14.19-29.23-27.67c0-.14,.14-1.42,.14-3.97,0-2.41,1.13-5.82,3.26-9.93,4.26-8.23,12.49-14.47,24.83-14.47,22.84,0,37.03,27.67,16.88,27.67-8.51,0-6.38-10.64-16.88-10.64-7.8,0-10.92,5.68-10.92,10.93,0,.43-.71,3.83,3.12,8.66,1.84,2.41,4.54,3.69,7.8,3.69,12.34,0,21.28,4.11,26.96,10.64,5.68,6.53,7.09,14.05,7.09,20.15,0,1.42-.14,2.98-.28,4.54-2.27,18.45-17.74,28.38-33.06,28.38-12.63,0-24.97-6.53-30.65-20.43-.57-1.28-.85-2.41-.85-3.55Zm82.29-77.61c4.4,0,8.51,2.84,8.51,8.65v32.63c7.8-2.13,14.76-2.84,20.86-2.84,13.05,0,20.86,2.7,21.14,2.7h.14v-32.49c0-5.82,4.4-8.65,8.8-8.65s8.65,2.84,8.65,8.65v82.01c0,5.67-4.26,8.65-8.65,8.65s-8.8-2.98-8.8-8.65v-32.49c0-.71-8.94-4.68-21-4.68-6.38,0-13.76,1.13-21.14,4.54v32.63c0,5.67-4.4,8.65-8.8,8.65s-8.51-2.84-8.51-8.65v-82.01c0-5.67,4.4-8.65,8.8-8.65Zm87.82,0h51.22c11.35,0,11.35,17.31,0,17.31h-42.28v24.26h33.63c11.35,0,11.35,17.17,0,17.17h-33.63v23.27h42.28c11.35,0,11.35,17.31,0,17.31h-51.22c-4.68,0-8.37-3.83-8.37-8.37v-82.57c0-4.68,3.69-8.37,8.37-8.37Zm74.2,0h59.59c2.84,0,4.97,.85,6.38,2.69,1.42,1.84,2.13,3.26,2.13,4.4s.14,1.7,.14,1.7c0,4.26-2.84,8.51-8.66,8.51h-21.14v73.35c0,5.67-4.26,8.65-8.65,8.65s-8.65-2.98-8.65-8.65v-73.35h-21.14c-5.68,0-8.65-4.26-8.65-8.66s2.84-8.65,8.65-8.65Zm79.88,0h59.59c2.84,0,4.97,.85,6.38,2.69,1.42,1.84,2.13,3.26,2.13,4.4s.14,1.7,.14,1.7c0,4.26-2.84,8.51-8.66,8.51h-21.14v73.35c0,5.67-4.26,8.65-8.65,8.65s-8.65-2.98-8.65-8.65v-73.35h-21.14c-5.68,0-8.65-4.26-8.65-8.66s2.84-8.65,8.65-8.65Zm48.1,94.92c0-.43,0-.99,.14-1.42,42.71-91.51,39.73-88.11,45.12-91.65,3.55-2.27,6.53-2.13,7.8-2.13,4.26,0,10.5,1.99,13.76,8.65,0,.71,38.45,83.85,38.45,85.13,.43,.71,.57,1.42,.57,1.99,0,1.28-.85,3.83-3.55,3.83h-7.66c-5.53,0-6.1-.57-7.52-1.99-8.51-10.22-21.14-14.47-33.2-14.47-.43,0-2.27,.14-5.68,.14-3.41,.14-8.09,1.42-14.19,3.83-6.1,2.41-11.35,5.96-15.61,10.5-.85,1.42-1.56,1.99-7.09,1.99h-7.38c-1.56,0-2.7-.71-3.4-1.99-.43-.85-.57-1.56-.57-2.41Zm40.86-26.11c3.97-.71,7.09-.99,9.22-.99,2.27,0,3.55-.14,3.83-.14,7.52,0,15.47,1.28,22.7,3.55l-1.42-3.26c-2.13-3.83-2.41-4.54-22.28-47.96-11.92,25.25-16.6,36.04-19.01,41.43-2.41,5.39-2.55,5.96-4.54,10.5,3.55-1.28,7.38-2.41,11.49-3.12Z"/>
</svg>