<svg width="24" height="24" viewBox="0 0 24 24" fill="none" xmlns="http://www.w3.org/2000/svg">
<g id="MenuButtonWide">
<path id="Vector" d="M0 2.90887C0 2.33021 0.237053 1.77526 0.65901 1.36609C1.08097 0.95692 1.65326 0.727051 2.25 0.727051L21.75 0.727051C22.3467 0.727051 22.919 0.95692 23.341 1.36609C23.7629 1.77526 24 2.33021 24 2.90887V5.81796C24 6.39661 23.7629 6.95157 23.341 7.36074C22.919 7.76991 22.3467 7.99978 21.75 7.99978H2.25C1.65326 7.99978 1.08097 7.76991 0.65901 7.36074C0.237053 6.95157 0 6.39661 0 5.81796L0 2.90887ZM2.25 2.1816C2.05109 2.1816 1.86032 2.25822 1.71967 2.39461C1.57902 2.531 1.5 2.71598 1.5 2.90887V5.81796C1.5 6.01084 1.57902 6.19583 1.71967 6.33222C1.86032 6.46861 2.05109 6.54523 2.25 6.54523H21.75C21.9489 6.54523 22.1397 6.46861 22.2803 6.33222C22.421 6.19583 22.5 6.01084 22.5 5.81796V2.90887C22.5 2.71598 22.421 2.531 22.2803 2.39461C22.1397 2.25822 21.9489 2.1816 21.75 2.1816H2.25Z" fill="#D4D4D4"/>
<path id="Vector_2" d="M3 4.3635C3 4.17062 3.07902 3.98563 3.21967 3.84924C3.36032 3.71285 3.55109 3.63623 3.75 3.63623H8.25C8.44891 3.63623 8.63968 3.71285 8.78033 3.84924C8.92098 3.98563 9 4.17062 9 4.3635C9 4.55639 8.92098 4.74137 8.78033 4.87776C8.63968 5.01415 8.44891 5.09078 8.25 5.09078H3.75C3.55109 5.09078 3.36032 5.01415 3.21967 4.87776C3.07902 4.74137 3 4.55639 3 4.3635ZM19.2345 4.83332L18.6405 4.25732C18.5879 4.20646 18.5521 4.14161 18.5376 4.07099C18.523 4.00036 18.5305 3.92715 18.5589 3.86062C18.5874 3.7941 18.6355 3.73726 18.6973 3.69731C18.7591 3.65736 18.8317 3.6361 18.906 3.63623H20.094C20.1683 3.6361 20.2409 3.65736 20.3027 3.69731C20.3645 3.73726 20.4126 3.7941 20.4411 3.86062C20.4695 3.92715 20.477 4.00036 20.4624 4.07099C20.4479 4.14161 20.4121 4.20646 20.3595 4.25732L19.7655 4.83332C19.7307 4.86719 19.6893 4.89405 19.6437 4.91239C19.5982 4.93072 19.5493 4.94015 19.5 4.94015C19.4507 4.94015 19.4018 4.93072 19.3563 4.91239C19.3107 4.89405 19.2693 4.86719 19.2345 4.83332ZM0 12.3635C0 11.592 0.316071 10.852 0.87868 10.3065C1.44129 9.76091 2.20435 9.45441 3 9.45441H21C21.7956 9.45441 22.5587 9.76091 23.1213 10.3065C23.6839 10.852 24 11.592 24 12.3635V19.6362C24 20.4078 23.6839 21.1477 23.1213 21.6933C22.5587 22.2388 21.7956 22.5453 21 22.5453H3C2.20435 22.5453 1.44129 22.2388 0.87868 21.6933C0.316071 21.1477 0 20.4078 0 19.6362V12.3635ZM1.5 16.7271V19.6362C1.5 20.022 1.65804 20.392 1.93934 20.6647C2.22064 20.9375 2.60218 21.0908 3 21.0908H21C21.3978 21.0908 21.7794 20.9375 22.0607 20.6647C22.342 20.392 22.5 20.022 22.5 19.6362V16.7271H1.5ZM22.5 15.2726V12.3635C22.5 11.9777 22.342 11.6078 22.0607 11.335C21.7794 11.0622 21.3978 10.909 21 10.909H3C2.60218 10.909 2.22064 11.0622 1.93934 11.335C1.65804 11.6078 1.5 11.9777 1.5 12.3635V15.2726H22.5ZM3 13.0908C3 12.8979 3.07902 12.7129 3.21967 12.5765C3.36032 12.4401 3.55109 12.3635 3.75 12.3635H17.25C17.4489 12.3635 17.6397 12.4401 17.7803 12.5765C17.921 12.7129 18 12.8979 18 13.0908C18 13.2837 17.921 13.4686 17.7803 13.605C17.6397 13.7414 17.4489 13.818 17.25 13.818H3.75C3.55109 13.818 3.36032 13.7414 3.21967 13.605C3.07902 13.4686 3 13.2837 3 13.0908ZM3 18.909C3 18.7161 3.07902 18.5311 3.21967 18.3947C3.36032 18.2583 3.55109 18.1817 3.75 18.1817H12.75C12.9489 18.1817 13.1397 18.2583 13.2803 18.3947C13.421 18.5311 13.5 18.7161 13.5 18.909C13.5 19.1018 13.421 19.2868 13.2803 19.4232C13.1397 19.5596 12.9489 19.6362 12.75 19.6362H3.75C3.55109 19.6362 3.36032 19.5596 3.21967 19.4232C3.07902 19.2868 3 19.1018 3 18.909Z" fill="#D4D4D4"/>
</g>
</svg>
