<svg width="24" height="24" viewBox="0 0 24 24" fill="none" xmlns="http://www.w3.org/2000/svg">
<path d="M0 2.90936C0 2.3307 0.237053 1.77575 0.65901 1.36658C1.08097 0.957409 1.65326 0.727539 2.25 0.727539L21.75 0.727539C22.3467 0.727539 22.919 0.957409 23.341 1.36658C23.7629 1.77575 24 2.3307 24 2.90936V5.81845C24 6.3971 23.7629 6.95206 23.341 7.36123C22.919 7.7704 22.3467 8.00027 21.75 8.00027H2.25C1.65326 8.00027 1.08097 7.7704 0.65901 7.36123C0.237053 6.95206 0 6.3971 0 5.81845L0 2.90936ZM2.25 2.18208C2.05109 2.18208 1.86032 2.25871 1.71967 2.3951C1.57902 2.53149 1.5 2.71647 1.5 2.90936V5.81845C1.5 6.01133 1.57902 6.19632 1.71967 6.33271C1.86032 6.4691 2.05109 6.54572 2.25 6.54572H21.75C21.9489 6.54572 22.1397 6.4691 22.2803 6.33271C22.421 6.19632 22.5 6.01133 22.5 5.81845V2.90936C22.5 2.71647 22.421 2.53149 22.2803 2.3951C22.1397 2.25871 21.9489 2.18208 21.75 2.18208H2.25Z" fill="#D4D4D4"/>
<path d="M3 4.36399C3 4.17111 3.07902 3.98612 3.21967 3.84973C3.36032 3.71334 3.55109 3.63672 3.75 3.63672H8.25C8.44891 3.63672 8.63968 3.71334 8.78033 3.84973C8.92098 3.98612 9 4.17111 9 4.36399C9 4.55688 8.92098 4.74186 8.78033 4.87825C8.63968 5.01464 8.44891 5.09126 8.25 5.09126H3.75C3.55109 5.09126 3.36032 5.01464 3.21967 4.87825C3.07902 4.74186 3 4.55688 3 4.36399ZM19.2345 4.83381L18.6405 4.25781C18.5879 4.20695 18.5521 4.1421 18.5376 4.07148C18.523 4.00085 18.5305 3.92764 18.5589 3.86111C18.5874 3.79458 18.6355 3.73774 18.6973 3.6978C18.7591 3.65785 18.8317 3.63659 18.906 3.63672H20.094C20.1683 3.63659 20.2409 3.65785 20.3027 3.6978C20.3645 3.73774 20.4126 3.79458 20.4411 3.86111C20.4695 3.92764 20.477 4.00085 20.4624 4.07148C20.4479 4.1421 20.4121 4.20695 20.3595 4.25781L19.7655 4.83381C19.7307 4.86767 19.6893 4.89454 19.6437 4.91287C19.5982 4.93121 19.5493 4.94064 19.5 4.94064C19.4507 4.94064 19.4018 4.93121 19.3563 4.91287C19.3107 4.89454 19.2693 4.86767 19.2345 4.83381ZM0 12.364C0 11.5925 0.316071 10.8525 0.87868 10.307C1.44129 9.76139 2.20435 9.4549 3 9.4549H21C21.7956 9.4549 22.5587 9.76139 23.1213 10.307C23.6839 10.8525 24 11.5925 24 12.364V19.6367C24 20.4083 23.6839 21.1482 23.1213 21.6938C22.5587 22.2393 21.7956 22.5458 21 22.5458H3C2.20435 22.5458 1.44129 22.2393 0.87868 21.6938C0.316071 21.1482 0 20.4083 0 19.6367V12.364ZM1.5 16.7276V19.6367C1.5 20.0225 1.65804 20.3925 1.93934 20.6652C2.22064 20.938 2.60218 21.0913 3 21.0913H21C21.3978 21.0913 21.7794 20.938 22.0607 20.6652C22.342 20.3925 22.5 20.0225 22.5 19.6367V16.7276H1.5ZM22.5 15.2731V12.364C22.5 11.9782 22.342 11.6083 22.0607 11.3355C21.7794 11.0627 21.3978 10.9094 21 10.9094H3C2.60218 10.9094 2.22064 11.0627 1.93934 11.3355C1.65804 11.6083 1.5 11.9782 1.5 12.364V15.2731H22.5ZM3 13.0913C3 12.8984 3.07902 12.7134 3.21967 12.577C3.36032 12.4406 3.55109 12.364 3.75 12.364H17.25C17.4489 12.364 17.6397 12.4406 17.7803 12.577C17.921 12.7134 18 12.8984 18 13.0913C18 13.2841 17.921 13.4691 17.7803 13.6055C17.6397 13.7419 17.4489 13.8185 17.25 13.8185H3.75C3.55109 13.8185 3.36032 13.7419 3.21967 13.6055C3.07902 13.4691 3 13.2841 3 13.0913ZM3 18.9094C3 18.7166 3.07902 18.5316 3.21967 18.3952C3.36032 18.2588 3.55109 18.1822 3.75 18.1822H12.75C12.9489 18.1822 13.1397 18.2588 13.2803 18.3952C13.421 18.5316 13.5 18.7166 13.5 18.9094C13.5 19.1023 13.421 19.2873 13.2803 19.4237C13.1397 19.5601 12.9489 19.6367 12.75 19.6367H3.75C3.55109 19.6367 3.36032 19.5601 3.21967 19.4237C3.07902 19.2873 3 19.1023 3 18.9094Z" fill="#D4D4D4"/>
</svg>
