<svg width="20" height="25" viewBox="0 0 20 25" fill="none" xmlns="http://www.w3.org/2000/svg">
<path d="M18.9567 8.68608C18.8499 8.75293 16.3079 10.1637 16.3079 13.2918C16.4277 16.8591 19.5158 18.1102 19.5688 18.1102C19.5158 18.177 19.1025 19.8144 17.8784 21.5308C16.9069 23.0093 15.8286 24.5 14.1912 24.5C12.6337 24.5 12.0746 23.5146 10.2775 23.5146C8.34751 23.5146 7.80143 24.5 6.32378 24.5C4.68639 24.5 3.52824 22.9295 2.50378 21.4648C1.17286 19.5479 0.0416225 16.5396 0.00168618 13.6512C-0.0252274 12.1206 0.268218 10.616 1.01312 9.33808C2.06448 7.55397 3.94149 6.34286 5.99127 6.30292C7.56181 6.24996 8.95958 7.3812 9.91805 7.3812C10.8366 7.3812 12.5538 6.30292 14.4968 6.30292C15.3355 6.30379 17.5719 6.55643 18.9567 8.68608ZM9.78522 5.99732C9.50566 4.59955 10.2775 3.20178 10.9963 2.31016C11.9149 1.23188 13.3656 0.5 14.6166 0.5C14.6965 1.89777 14.1904 3.26863 13.2857 4.26704C12.474 5.34532 11.0762 6.15707 9.78522 5.99732Z" fill="#4BA4EC"/>
</svg>
